<svg width="159" height="158" viewBox="0 0 159 158" fill="none" xmlns="http://www.w3.org/2000/svg">
<path d="M58.7992 142.861L71.0112 131.809L59.2133 118.772L71.2315 107.896L49.7289 84.1356L37.7107 95.0117L25.9128 81.9749L13.7008 93.0265L0 77.887L14.3443 64.9058L25.9519 77.7323L37.7762 67.0316L49.5741 80.0684L59.4601 71.1219L36.0546 45.2587L50.205 32.4529L73.6105 58.3162L83.4964 49.3697L71.6986 36.3329L83.7167 25.4568L72.1091 12.6303L86.0657 1.08619e-05L99.7665 15.1395L87.7483 26.0156L99.5462 39.0524L87.7219 49.753L109.224 73.5136L121.049 62.8129L132.847 75.8497L144.865 64.9736L158.566 80.113L144.609 92.7434L132.811 79.7066L120.793 90.5827L109.185 77.7562L99.2995 86.7027L122.705 112.566L108.555 125.372L85.149 99.5084L75.2631 108.455L86.8707 121.281L75.0463 131.982L86.8442 145.019L72.4999 158L58.7992 142.861Z" fill="white"/>
</svg>
