<svg width="150" height="146" viewBox="0 0 150 146" fill="none" xmlns="http://www.w3.org/2000/svg">
<path d="M8.31909 80.0056L23.3564 86.7161L30.5202 70.6632L45.3189 77.2673L58.3753 48.0095L43.5767 41.4055L50.7404 25.3526L35.703 18.6421L44.0222 0L61.6851 7.88222L54.6369 23.6762L69.1969 30.1737L62.0332 46.2266L74.2063 51.659L88.4182 19.8121L105.842 27.5878L91.6305 59.4347L103.804 64.867L110.967 48.8141L125.766 55.4181L132.814 39.6241L150 47.2933L141.681 65.9354L126.882 59.3314L119.718 75.3843L105.158 68.8868L92.1018 98.1445L106.662 104.642L99.498 120.695L114.297 127.299L105.978 145.941L88.792 138.272L95.9557 122.219L81.157 115.615L88.2052 99.8209L76.0321 94.3886L61.8202 126.235L44.3959 118.46L58.6079 86.6129L46.4348 81.1805L39.3866 96.9745L24.8266 90.477L17.6629 106.53L-8.11238e-05 98.6477L8.31909 80.0056Z" fill="white"/>
</svg>
