<svg width="77" height="74" viewBox="0 0 77 74" fill="none" xmlns="http://www.w3.org/2000/svg">
<path d="M13.3014 63.3365L21.88 60.8431L19.2111 51.6607L27.6535 49.2069L22.7893 32.4711L14.3468 34.925L11.678 25.7425L3.09936 28.2359L0 17.5724L10.0764 14.6437L12.7023 23.678L21.0085 21.2638L23.6774 30.4462L30.622 28.4278L25.3273 10.211L35.2675 7.32186L40.5623 25.5386L47.5069 23.5202L44.838 14.3377L53.2804 11.8839L50.6546 2.8496L60.4587 2.46886e-05L63.558 10.6635L55.1156 13.1173L57.7845 22.2997L49.4782 24.714L54.3425 41.4497L62.6487 39.0355L65.3176 48.2179L73.7601 45.7641L76.8594 56.4276L67.0553 59.2771L64.3864 50.0947L55.944 52.5485L53.3182 43.5142L46.3736 45.5326L51.6683 63.7494L41.728 66.6386L36.4333 48.4218L29.4887 50.4402L32.1146 59.4746L23.8083 61.8888L26.4772 71.0712L16.4008 74L13.3014 63.3365Z" fill="white"/>
</svg>
