<svg width="370" height="156" viewBox="0 0 370 156" fill="none" xmlns="http://www.w3.org/2000/svg">
<path d="M100.124 58.4718C102.854 54.9184 106.746 49.9357 111.799 43.5235C116.837 37.0667 121.774 31.3203 126.61 26.2843C131.493 21.1923 136.711 16.7312 142.265 12.9009C147.865 9.0145 153.468 6.55959 159.074 5.53613C162.625 4.88794 165.668 4.92906 168.204 5.65949C170.74 6.38992 172.376 7.73816 173.112 9.7042C173.496 10.7319 173.463 11.6211 173.012 12.3717C172.561 13.1224 171.806 13.5944 170.747 13.7877C168.691 14.1629 167.404 13.658 166.886 12.2728C166.367 10.8877 167.074 10.0188 169.005 9.66629C169.254 9.62081 169.622 9.62529 170.108 9.67973C170.577 9.6895 170.874 9.68301 170.999 9.66027C171.373 9.59203 171.468 9.31216 171.284 8.82065C170.832 7.61422 169.522 6.77943 167.352 6.31629C165.245 5.84178 162.665 5.88314 159.612 6.44035C154.006 7.46381 148.366 9.99712 142.692 14.0403C137.017 18.0834 132.1 22.3703 127.939 26.901C123.762 31.387 119.701 36.1857 115.758 41.2972C111.86 46.3527 109.002 50.0966 107.184 52.5289C103.766 56.733 99.4928 62.1195 94.3645 68.6884C89.2196 75.2127 84.6229 80.8015 80.5746 85.4548C76.5886 90.0968 72.5971 94.1908 68.6003 97.7368C64.6657 101.271 60.6611 104.174 56.5866 106.446L55.5381 105.778C60.8516 98.4592 64.402 92.2976 66.1895 87.2933C72.9156 69.1671 79.8376 54.9433 86.9556 44.6219L91.2665 38.5363C94.1693 34.3786 96.826 30.7192 99.2367 27.5582C102.108 24.0267 103.294 22.3065 102.796 22.3975C102.36 22.4771 100.459 24.4231 97.0945 28.2356C93.7754 31.9921 89.9967 36.4769 85.7586 41.6899C81.5204 46.903 77.9332 51.5438 74.997 55.6122L72.4314 59.1595C69.3175 63.6422 65.7744 68.4897 61.8021 73.702C57.8132 78.8696 53.6889 83.9425 49.4295 88.9208C45.1533 93.8544 40.7122 98.4362 36.1062 102.666C31.5002 106.896 26.9586 110.231 22.4815 112.672L21.433 112.004C24.5122 108.673 27.2782 104.684 29.7312 100.035C32.2298 95.3305 35.0183 89.3558 38.0968 82.1109C39.857 77.923 40.7887 75.7003 40.892 75.4427L41.5982 73.5954C47.4729 61.0187 54.3522 49.8817 62.2361 40.1842L67.1578 34.1303C62.4059 38.1483 57.6005 40.6008 52.7417 41.4878C47.6337 42.4203 44.4778 41.278 43.2738 38.0608C43.2237 37.9268 43.0975 37.2338 42.8952 35.9819C42.6929 34.73 42.5415 33.9699 42.4412 33.7018C42.1737 32.9869 41.3827 32.2959 40.0683 31.6289C38.7372 30.9172 36.9663 30.4529 34.7556 30.2359C32.5281 29.9742 30.0128 30.0993 27.2097 30.611C21.0427 31.7368 15.8354 33.7376 11.5877 36.6134C7.40236 39.4778 4.5366 42.5786 2.99047 45.9159C1.42761 49.2086 1.08929 52.039 1.97551 54.4072C2.845 56.7307 4.77871 58.4303 7.77663 59.506C10.8201 60.5257 14.2729 60.683 18.1351 59.9779C23.2431 59.0454 27.5722 57.2766 31.1225 54.6713C34.7351 52.0546 38.0361 48.5163 41.0255 44.0563L41.8369 44.6242C36.7349 53.5751 28.8891 59.0172 18.2993 60.9504C13.9389 61.7464 10.1495 61.5789 6.93127 60.448C3.71303 59.317 1.59391 57.3887 0.573929 54.663C-0.446057 51.9374 -0.106263 48.8442 1.59331 45.3834C3.27616 41.8779 6.27256 38.6816 10.5825 35.7944C14.8925 32.9073 20.3801 30.8553 27.0454 29.6385C32.0288 28.7288 36.3476 28.7996 40.0019 29.851C43.6395 30.8577 45.9181 32.5898 46.8378 35.0473C46.9214 35.2707 47.0681 35.8406 47.2779 36.757C47.4878 37.6734 47.6178 38.1987 47.6679 38.3327C48.3869 40.2541 50.2726 40.9361 53.3249 40.3789C57.7477 39.5715 61.7646 37.5017 65.3755 34.1693C69.0488 30.8255 72.4121 27.2758 75.4654 23.5202C76.0122 22.8475 76.4679 22.287 76.8325 21.8386C77.1803 21.3454 77.5077 20.9754 77.8146 20.7284C78.167 20.4254 78.5924 20.2284 79.0908 20.1374C79.5891 20.0465 79.8717 20.0904 79.9386 20.2691C80.0556 20.5819 79.047 21.8878 76.9127 24.1868C71.848 29.503 67.7391 34.8835 64.5858 40.3281C61.4948 45.7614 58.5347 52.0777 55.7053 59.2772C53.4045 65.0435 51.5843 69.3378 50.2447 72.1601C48.9507 74.9263 46.6002 78.9594 43.1931 84.2594C39.7694 89.5148 34.7795 96.6313 28.2235 105.609L25.5462 109.391C29.7437 106.382 33.6624 103.16 37.3022 99.727C40.942 96.2939 43.9719 93.187 46.3918 90.4062C48.8739 87.614 51.4594 84.5643 54.1481 81.2571C56.8201 77.9052 60.3678 73.2478 64.7911 67.2849L69.5623 60.8289C73.2566 55.7628 76.8703 50.9263 80.4036 46.3193C83.9201 41.6675 87.2134 37.4862 90.2834 33.7752C93.3367 30.0196 96.4736 26.4873 99.694 23.1785C102.915 19.8697 106.045 17.0308 109.085 14.662L110.55 15.1104C103.063 25.6902 98.6306 32.2514 97.2529 34.7942C96.7608 35.791 95.6612 38.1876 93.9541 41.9839C92.247 45.7802 90.7404 49.1341 89.4342 52.0458C88.1114 54.9127 86.5341 58.2557 84.7024 62.0748C79.5991 72.267 75.6918 79.5201 72.9805 83.8338C70.3147 88.0916 66.36 93.7064 61.1163 100.678L59.2776 103.234C62.7246 100.886 66.5187 97.6872 70.6598 93.6375C74.8009 89.5877 78.6655 85.4214 82.2535 81.1386C85.9038 76.8443 89.3217 72.6402 92.5071 68.5263C95.6757 64.3677 98.2148 61.0162 100.124 58.4718Z" fill="black"/>
<path d="M101.271 58.8478C104.001 55.2945 107.892 50.3117 112.946 43.8996C117.983 37.4427 122.92 31.6963 127.757 26.6604C132.639 21.5684 137.858 17.1072 143.412 13.2769C149.012 9.39054 154.615 6.93562 160.221 5.91217C163.772 5.26398 166.815 5.30509 169.351 6.03552C171.887 6.76595 173.523 8.11419 174.258 10.0802C174.643 11.1079 174.61 11.9971 174.159 12.7478C173.708 13.4984 172.952 13.9704 171.893 14.1637C169.838 14.539 168.551 14.034 168.032 12.6489C167.514 11.2637 168.22 10.3949 170.152 10.0423C170.401 9.99684 170.768 10.0013 171.255 10.0558C171.724 10.0655 172.021 10.059 172.146 10.0363C172.519 9.96807 172.614 9.6882 172.43 9.19669C171.979 7.99025 170.668 7.15547 168.499 6.69233C166.391 6.21782 163.811 6.25917 160.759 6.81639C155.153 7.83985 149.512 10.3732 143.838 14.4163C138.164 18.4595 133.247 22.7464 129.086 27.277C124.908 31.763 120.848 36.5618 116.904 41.6733C113.007 46.7288 110.149 50.4726 108.33 52.9049C104.912 57.109 100.639 62.4955 95.5112 69.0645C90.3662 75.5887 85.7696 81.1775 81.7213 85.8309C77.7352 90.4728 73.7438 94.5668 69.7469 98.1128C65.8124 101.647 61.8078 104.55 57.7332 106.822L56.6848 106.154C61.9982 98.8352 65.5487 92.6736 67.3361 87.6693C74.0622 69.5431 80.9843 55.3194 88.1022 44.998L92.4132 38.9124C95.316 34.7546 97.9727 31.0952 100.383 27.9342C103.254 24.4028 104.441 22.6825 103.942 22.7735C103.506 22.8531 101.606 24.7992 98.2412 28.6117C94.922 32.3681 91.1434 36.8529 86.9052 42.066C82.6671 47.279 79.0799 51.9198 76.1437 55.9882L73.5781 59.5355C70.4641 64.0183 66.921 68.8658 62.9488 74.078C58.9598 79.2456 54.8356 84.3185 50.5762 89.2968C46.3 94.2304 41.8589 98.8123 37.2529 103.042C32.6469 107.272 28.1053 110.608 23.6281 113.048L22.5796 112.38C25.6588 109.049 28.4249 105.06 30.8779 100.411C33.3764 95.7066 36.1649 89.7318 39.2434 82.4869C41.0037 78.299 41.9354 76.0763 42.0387 75.8188L42.7449 73.9714C48.6196 61.3947 55.4989 50.2577 63.3827 40.5603L68.3044 34.5064C63.5525 38.5244 58.7472 40.9769 53.8884 41.8639C48.7804 42.7964 45.6244 41.654 44.4205 38.4369C44.3704 38.3028 44.2441 37.6098 44.0418 36.3579C43.8395 35.106 43.6882 34.346 43.5879 34.0779C43.3203 33.363 42.5294 32.672 41.215 32.005C39.8839 31.2933 38.113 30.8289 35.9023 30.6119C33.6748 30.3503 31.1595 30.4753 28.3563 30.987C22.1894 32.1128 16.9821 34.1136 12.7344 36.9894C8.54903 39.8538 5.68327 42.9547 4.13714 46.292C2.57428 49.5846 2.23596 52.415 3.12217 54.7832C3.99167 57.1067 5.92538 58.8063 8.9233 59.882C11.9668 60.9017 15.4196 61.059 19.2817 60.354C24.3897 59.4215 28.7189 57.6526 32.2692 55.0473C35.8818 52.4307 39.1828 48.8924 42.1721 44.4323L42.9836 45.0002C37.8816 53.9512 30.0357 59.3932 19.446 61.3264C15.0855 62.1224 11.2962 61.955 8.07793 60.824C4.85969 59.693 2.74058 57.7647 1.72059 55.0391C0.700609 52.3134 1.0404 49.2202 2.73997 45.7594C4.42282 42.2539 7.41923 39.0576 11.7292 36.1705C16.0392 33.2833 21.5268 31.2313 28.1921 30.0146C33.1755 29.1048 37.4943 29.1756 41.1486 30.227C44.7862 31.2337 47.0648 32.9658 47.9844 35.4234C48.068 35.6468 48.2148 36.2167 48.4246 37.1331C48.6344 38.0495 48.7644 38.5747 48.8146 38.7088C49.5336 40.6301 51.4193 41.3122 54.4716 40.755C58.8944 39.9476 62.9112 37.8777 66.5222 34.5453C70.1955 31.2016 73.5587 27.6519 76.612 23.8962C77.1589 23.2236 77.6146 22.663 77.9792 22.2146C78.327 21.7215 78.6544 21.3514 78.9612 21.1045C79.3137 20.8015 79.7391 20.6045 80.2374 20.5135C80.7358 20.4225 81.0184 20.4664 81.0853 20.6451C81.2023 20.9579 80.1937 22.2638 78.0594 24.5628C72.9947 29.8791 68.8857 35.2595 65.7325 40.7041C62.6415 46.1374 59.6813 52.4538 56.852 59.6532C54.5512 65.4196 52.731 69.7139 51.3914 72.5361C50.0974 75.3023 47.7468 79.3354 44.3398 84.6355C40.9161 89.8908 35.9262 97.0073 29.3701 105.985L26.6929 109.767C30.8904 106.758 34.8091 103.536 38.4489 100.103C42.0887 96.67 45.1185 93.563 47.5384 90.7822C50.0206 87.9901 52.606 84.9404 55.2947 81.6332C57.9667 78.2813 61.5144 73.6239 65.9378 67.6609L70.709 61.2049C74.4032 56.1389 78.017 51.3023 81.5502 46.6953C85.0668 42.0436 88.36 37.8622 91.43 34.1513C94.4833 30.3956 97.6202 26.8634 100.841 23.5545C104.061 20.2457 107.191 17.4069 110.231 15.038L111.697 15.4865C104.21 26.0662 99.7772 32.6274 98.3996 35.1702C97.9075 36.167 96.8079 38.5636 95.1008 42.3599C93.3937 46.1562 91.8871 49.5102 90.5809 52.4218C89.258 55.2887 87.6808 58.6317 85.8491 62.4508C80.7458 72.6431 76.8384 79.8961 74.1271 84.2099C71.4614 88.4676 67.5067 94.0824 62.263 101.054L60.4243 103.61C63.8713 101.262 67.6654 98.0632 71.8065 94.0135C75.9476 89.9638 79.8122 85.7975 83.4002 81.5146C87.0505 77.2203 90.4683 73.0163 93.6537 68.9023C96.8224 64.7437 99.3615 61.3922 101.271 58.8478Z" fill="black"/>
<path d="M158.315 81.2113C158.097 81.2089 157.807 81.1661 157.445 81.0831C157.085 80.9209 156.793 80.9572 156.57 81.192C156.211 80.9508 155.744 80.7084 155.168 80.4647C154.591 80.2211 154.011 80.1751 153.425 80.3269C152.624 80.3971 152.148 80.5105 151.999 80.6671C151.852 80.7445 151.669 80.7821 151.451 80.7797C150.582 80.6119 149.965 80.5655 149.599 80.6406C149.307 80.7165 148.98 80.7129 148.618 80.6298C147.534 80.3014 146.81 80.1748 146.444 80.2499C146.153 80.2467 145.826 80.2431 145.463 80.2391C144.739 80.0729 144.195 79.9878 143.832 79.9838C143.468 79.9798 143.104 80.0153 142.738 80.0904C142.448 80.0872 142.119 80.1231 141.754 80.1981C141.318 80.1933 140.554 80.1849 139.463 80.1729C138.447 80.0826 137.646 80.1133 137.061 80.265C136.479 80.2586 136.042 80.2933 135.749 80.3692C135.457 80.4451 135.277 80.364 135.209 80.126C134.986 80.3608 134.73 80.3975 134.443 80.2362C134.229 80.0756 133.976 79.9937 133.685 79.9905C132.809 80.139 132.262 80.2121 132.044 80.2097C131.9 80.129 131.718 80.127 131.498 80.2037C131.204 80.3586 130.767 80.3538 130.189 80.1892C130.327 80.5071 130.319 80.863 130.165 81.2567C130.085 81.5722 130.041 81.9277 130.032 82.323C130.296 83.5124 130.387 84.3043 130.305 84.6989C130.298 85.0152 130.364 85.3323 130.502 85.6502C130.275 86.0432 130.227 86.5567 130.358 87.191C130.558 87.9841 130.619 88.5384 130.539 88.8539C130.461 89.0904 130.528 89.3284 130.741 89.568C130.505 90.3563 130.459 90.7909 130.602 90.8715C130.748 90.8731 130.819 90.953 130.815 91.1112C131.012 92.0625 131.108 92.6172 131.105 92.7753C131.174 92.9343 131.28 93.0541 131.424 93.1348C131.615 94.3233 131.706 95.1153 131.698 95.5106C131.761 95.9068 131.825 96.303 131.889 96.6992C131.88 97.0945 131.978 97.5702 132.184 98.1261C132.464 98.6038 132.711 98.9624 132.923 99.2021C133.551 100.395 134.038 101.389 134.383 102.184C134.802 102.98 135.332 103.658 135.974 104.219C136.11 104.616 136.431 104.896 136.937 105.06C137.515 105.224 137.836 105.505 137.9 105.901C138.265 105.826 138.553 105.948 138.764 106.266C139.05 106.507 139.336 106.708 139.624 106.869C140.858 106.962 141.692 107.09 142.124 107.253C142.557 107.415 143.028 107.5 143.537 107.505C143.979 107.273 144.235 107.197 144.306 107.277C144.451 107.278 144.597 107.28 144.742 107.281C145.473 107.131 145.913 106.978 146.062 106.821C146.285 106.587 146.507 106.431 146.727 106.354C147.383 106.282 147.784 106.247 147.929 106.249C148.149 106.172 148.334 106.056 148.483 105.899C149.144 105.59 149.55 105.357 149.699 105.201C149.848 105.044 150.068 104.967 150.359 104.971C150.735 104.421 151.032 104.147 151.25 104.15C151.47 104.073 151.654 103.957 151.803 103.8C152.1 103.566 152.397 103.292 152.695 102.979C153.066 102.667 153.328 102.314 153.483 101.92C154.22 101.454 154.627 101.182 154.701 101.103C154.85 100.947 154.999 100.79 155.148 100.634C155.686 99.374 156.106 98.4691 156.41 97.9188C156.715 97.2894 156.912 96.6192 157.001 95.9084C157.086 95.3556 157.061 94.8413 156.926 94.3652C156.794 93.8101 156.732 93.2953 156.743 92.8208C156.545 91.9486 156.373 91.5117 156.227 91.5101C156.156 91.4302 156.197 91.2329 156.35 90.9182C155.997 90.4398 155.569 90.0791 155.065 89.8363C154.561 89.5935 154.096 89.2719 153.668 88.8718C153.087 88.8653 152.579 88.8202 152.144 88.7363C151.71 88.6524 151.309 88.6875 150.942 88.8417C150.353 89.1516 149.871 89.5417 149.497 90.0122C149.122 90.4826 148.749 90.9135 148.376 91.3049C148.071 91.9343 147.917 92.328 147.913 92.4862C147.982 92.6451 147.941 92.8819 147.788 93.1966C147.636 93.5113 147.593 93.7877 147.66 94.0257C147.8 94.2645 147.796 94.4622 147.647 94.6188C148.362 95.1803 148.827 95.5018 149.043 95.5833C149.334 95.5865 149.477 95.7067 149.472 95.944C149.91 95.8697 150.236 95.9129 150.451 96.0734C150.738 96.2348 150.988 96.4353 151.201 96.6749L151.166 98.2168C150.362 98.3662 150.032 98.5207 150.174 98.6805C150.317 98.7611 150.315 98.8798 150.166 99.0363C149.437 99.1074 148.964 99.1021 148.748 99.0207C148.604 98.94 148.46 98.8593 148.317 98.7786C147.593 98.6125 147.125 98.4096 146.912 98.1699C146.626 97.9295 146.376 97.729 146.162 97.5684C145.947 97.4079 145.734 97.1683 145.523 96.8496C145.107 95.9749 144.862 95.5372 144.789 95.5364C144.717 95.5356 144.682 95.4561 144.686 95.298C144.617 95.139 144.585 94.9409 144.59 94.7037C144.595 94.4665 144.564 94.2289 144.497 93.9908C144.502 93.7536 144.472 93.4764 144.407 93.1593C144.414 92.843 144.456 92.6062 144.532 92.4489C144.759 92.0559 144.912 91.7412 144.99 91.5048C145.07 91.1893 145.219 91.0327 145.437 91.0352C145.382 90.2436 145.54 89.6917 145.911 89.3794C146.281 89.0671 146.51 88.5951 146.597 87.9633C147.19 87.4952 147.485 87.3008 147.483 87.3798C147.556 87.3806 147.666 87.3423 147.813 87.2648C148.182 87.0316 148.404 86.8759 148.478 86.7976C148.627 86.6411 148.81 86.6035 149.026 86.685C149.913 86.062 150.502 85.7522 150.793 85.7554C151.086 85.6795 151.307 85.5633 151.456 85.4067C152.179 85.5729 153.048 85.7407 154.063 85.9101C154.925 86.3941 155.465 86.6374 155.683 86.6398C156.692 87.0464 157.303 87.3695 157.516 87.6091C157.801 87.8496 158.088 88.0505 158.375 88.2118C158.515 88.4506 158.62 88.6495 158.689 88.8085C158.831 88.9682 158.971 89.1675 159.112 89.4064C159.253 89.5661 159.357 89.8045 159.423 90.1216C159.563 90.3605 159.703 90.5993 159.843 90.8381C159.894 91.7878 159.953 92.4212 160.018 92.7383C160.084 93.0554 160.114 93.3326 160.108 93.5698C160.282 95.5491 159.954 97.1669 159.126 98.4233C159.037 99.1341 158.955 99.5683 158.878 99.7256C158.804 99.8039 158.692 99.9213 158.543 100.078C157.934 101.258 157.551 102.123 157.393 102.675C156.504 103.377 155.985 103.846 155.834 104.082C155.536 104.395 155.239 104.668 154.943 104.902C154.721 105.058 154.535 105.214 154.386 105.371C154.019 105.525 153.761 105.68 153.612 105.837C153.536 105.994 153.389 106.072 153.171 106.069C152.353 106.851 151.649 107.397 151.061 107.707C150.472 108.017 149.848 108.247 149.19 108.398C148.452 108.865 148.01 109.137 147.862 109.214C147.419 109.526 147.125 109.681 146.979 109.679C146.834 109.677 146.687 109.715 146.54 109.793C146.247 109.869 145.992 109.905 145.774 109.903C145.556 109.9 145.264 109.937 144.899 110.012C144.679 110.089 144.422 110.165 144.13 110.241C143.91 110.317 143.691 110.354 143.473 110.352C143.327 110.35 143.146 110.309 142.93 110.227C142.712 110.225 142.494 110.223 142.275 110.22C141.984 110.217 141.694 110.214 141.403 110.211C141.183 110.287 140.927 110.324 140.637 110.321C139.838 110.233 139.403 110.189 139.33 110.188C139.329 110.267 139.255 110.306 139.109 110.304C138.026 109.976 137.339 109.81 137.048 109.807C136.83 109.804 136.614 109.683 136.401 109.444C136.036 109.519 135.672 109.515 135.311 109.432C135.021 109.349 134.697 109.227 134.337 109.065C133.539 108.977 133.141 108.894 133.142 108.814C132.641 108.493 132.173 108.25 131.741 108.087C131.311 107.766 131.023 107.644 130.876 107.722C130.803 107.721 130.695 107.68 130.551 107.599C129.837 107.038 129.371 106.716 129.155 106.635C129.011 106.554 128.833 106.394 128.62 106.154C128.406 105.994 128.191 105.833 127.976 105.673C127.764 105.433 127.477 105.232 127.117 105.07C126.621 104.511 126.301 104.191 126.157 104.11C126.013 104.03 125.832 103.988 125.614 103.986C124.974 103.346 124.583 102.946 124.441 102.786C124.301 102.548 124.087 102.387 123.798 102.305C123.658 102.066 123.48 101.866 123.266 101.706C123.126 101.467 122.985 101.268 122.843 101.108C122.35 100.39 122.036 99.7938 121.901 99.3178C121.767 98.8417 121.519 98.5226 121.159 98.3604C120.888 97.4874 120.753 97.0114 120.755 96.9323C120.759 96.7741 120.651 96.6939 120.433 96.6915C120.446 96.1379 120.345 95.7809 120.13 95.6203C119.915 95.4598 119.739 95.2206 119.601 94.9027C119.753 94.588 119.722 94.3503 119.508 94.1898C119.368 93.9509 119.372 93.7533 119.521 93.5967C119.239 93.1981 119.029 92.8399 118.891 92.522C118.825 92.2049 118.723 91.8874 118.585 91.5695C118.52 91.2524 118.452 91.0144 118.383 90.8554C118.316 90.6174 118.285 90.3798 118.29 90.1425C118.09 89.3494 117.881 88.9121 117.665 88.8306C117.451 88.67 117.49 88.5518 117.782 88.4759C117.295 87.5214 117.057 86.7674 117.07 86.2139C117.155 85.6612 117.202 85.1871 117.211 84.7917C117.152 84.1584 117.125 83.7626 117.129 83.6044C117.207 83.368 117.248 83.1312 117.254 82.894C117.052 82.1799 116.988 81.7837 117.062 81.7054C117.139 81.5481 117.142 81.3899 117.073 81.231C116.953 80.1223 117.047 79.1742 117.356 78.3867C117.077 77.83 116.982 77.2357 117.069 76.6039C117.156 75.9721 117.277 75.4198 117.433 74.9469C117.51 74.7896 117.551 74.5528 117.559 74.2365C117.568 73.8411 117.576 73.4853 117.583 73.169C117.528 72.3774 117.612 71.8642 117.836 71.6294C117.864 70.3642 117.888 69.3363 117.906 68.5455C117.996 67.7556 118.229 67.0858 118.606 66.5363C118.772 65.589 119.008 64.8007 119.314 64.1713C119.621 63.4628 119.857 62.6745 120.022 61.8063C120.323 61.335 120.549 61.0211 120.698 60.8646C120.921 60.6298 121.071 60.4337 121.147 60.2763C121.227 59.9609 121.305 59.7244 121.382 59.5671C121.531 59.4105 121.681 59.2145 121.831 58.9788C122.649 58.1969 123.17 57.6885 123.393 57.4537C123.69 57.2197 123.986 56.9857 124.282 56.7517C124.431 56.5951 124.58 56.4386 124.729 56.282C124.878 56.1255 125.028 55.9294 125.179 55.6938C125.328 55.5372 125.477 55.3807 125.626 55.2242C125.849 54.9893 126.036 54.7937 126.185 54.6371C126.852 54.0908 127.259 53.7789 127.406 53.7014C127.628 53.5457 127.813 53.3896 127.962 53.233C128.184 53.0773 128.369 52.9211 128.518 52.7646C128.667 52.608 128.815 52.491 128.962 52.4136C129.331 52.1803 129.735 52.0266 130.173 51.9523C130.611 51.8781 131.016 51.6453 131.389 51.2539C131.678 51.3362 131.896 51.3386 132.043 51.2611C132.191 51.1837 132.373 51.1461 132.591 51.1485C133.331 50.603 133.776 50.252 133.925 50.0955C134.075 49.8598 134.225 49.6638 134.374 49.5072C135.103 49.4362 135.685 49.4426 136.119 49.5265C136.628 49.5321 137.139 49.4586 137.652 49.3061C138.017 49.231 138.311 49.1156 138.533 48.9599C138.829 48.7258 139.157 48.6899 139.517 48.8521C140.251 48.5438 140.946 48.3933 141.6 48.4005C142.327 48.4085 143.017 48.4557 143.67 48.542C143.888 48.5444 144.105 48.5863 144.322 48.6678C144.613 48.671 144.939 48.7141 145.301 48.7972C145.808 48.8819 146.277 49.0453 146.708 49.2873C147.141 49.4503 147.646 49.614 148.224 49.7786C149.081 50.4999 149.87 50.9832 150.592 51.2284C151.315 51.3946 151.815 51.8351 152.089 52.55C153.019 53.2721 153.661 53.8328 154.015 54.2322C154.372 54.5525 154.616 54.9902 154.749 55.5454C155.318 56.1053 155.703 56.7819 155.904 57.575C156.104 58.3682 156.415 59.0834 156.837 59.7209C157.181 60.5947 157.383 61.3088 157.443 61.8631C157.576 62.4182 157.564 62.9717 157.406 63.5237C157.595 64.7913 157.827 65.7825 158.102 66.4974C158.379 67.1332 158.582 67.8077 158.711 68.521C158.908 69.4723 159.002 70.1061 158.995 70.4224C159.061 70.7395 159.125 71.0962 159.189 71.4923C159.177 72.0459 159.206 72.3625 159.277 72.4424C159.421 72.5231 159.491 72.6425 159.487 72.8007C159.549 73.2759 159.577 73.6322 159.572 73.8694C159.641 74.0283 159.673 74.2264 159.668 74.4636C159.659 74.859 159.615 75.1749 159.537 75.4113C159.459 75.6478 159.416 75.9241 159.409 76.2404C159.751 77.1933 159.885 77.7089 159.811 77.7872C159.736 77.8655 159.733 77.9841 159.803 78.143C159.788 78.7756 159.741 79.2497 159.661 79.5652C159.581 79.8807 159.466 80.1562 159.315 80.3918C159.166 80.5484 158.946 80.6251 158.656 80.6218C158.365 80.6186 158.251 80.8151 158.315 81.2113ZM148.53 65.2054C148.83 64.8132 148.877 64.3392 148.671 63.7833C148.54 63.1491 148.406 62.6335 148.27 62.2365C148.419 62.0799 148.423 61.9218 148.281 61.762C148.141 61.5232 148.11 61.246 148.19 60.9305C147.77 60.2141 147.525 59.7763 147.456 59.6174C147.46 59.4592 147.392 59.2608 147.252 59.0219C146.975 58.3861 146.838 58.0287 146.839 57.9496C146.916 57.7923 146.918 57.6736 146.847 57.5938C146.567 57.1161 146.393 56.7978 146.324 56.6389C146.327 56.4807 146.257 56.3613 146.113 56.2806C146.124 55.8062 145.986 55.4883 145.699 55.3269C145.486 55.0873 145.422 54.6911 145.507 54.1384C145.222 53.8979 144.935 53.6971 144.648 53.5357C144.363 53.2953 144.189 52.9374 144.127 52.4622C143.77 52.1419 143.301 51.9785 142.72 51.9721C142.14 51.8866 141.633 51.7624 141.2 51.5994C140.982 51.597 140.653 51.6725 140.213 51.8258C139.848 51.9009 139.592 51.9771 139.445 52.0546C139.008 52.0498 138.606 52.1245 138.239 52.2786C137.947 52.3545 137.653 52.4699 137.359 52.6248C137.137 52.7805 136.88 52.8964 136.587 52.9722C136.294 53.0481 136.074 53.1643 135.925 53.3208C135.552 53.7122 135.111 53.9051 134.602 53.8995C134.448 54.2932 134.258 54.6471 134.033 54.961C133.882 55.1966 133.728 55.5508 133.572 56.0237C132.974 56.7289 132.598 57.2784 132.444 57.6722C132.29 58.066 132.135 58.4597 131.981 58.8535C131.743 59.7209 131.469 60.5879 131.158 61.4545C130.922 62.2429 130.828 63.191 130.876 64.2988C130.65 64.6127 130.534 64.9278 130.527 65.2441C130.593 65.5612 130.548 65.9166 130.394 66.3104C130.31 66.7841 130.192 67.2178 130.037 67.6115C129.957 67.927 130.021 68.3232 130.229 68.8001C129.7 69.6643 129.676 70.7318 130.156 72.0026C129.933 72.2374 129.819 72.4339 129.815 72.592C129.812 72.7502 129.806 73.027 129.797 73.4223C129.704 74.2913 129.615 75.0022 129.53 75.5549C129.445 76.1077 129.468 76.7011 129.599 77.3353C130.11 77.2619 130.582 77.3066 131.014 77.4696C131.814 77.4784 132.433 77.4457 132.871 77.3714C133.384 77.2189 133.858 77.145 134.295 77.1498C135.453 77.3999 136.287 77.4882 136.798 77.4147C137.311 77.2622 137.746 77.3065 138.104 77.5478C138.401 77.3138 138.804 77.16 139.315 77.0866C139.899 77.0139 140.481 76.9808 141.063 76.9872C141.645 76.9936 142.189 77.0392 142.696 77.1239C143.278 77.1303 143.752 77.0959 144.117 77.0209C144.773 76.949 145.173 76.9534 145.317 77.0341C145.533 77.1156 145.714 77.1571 145.86 77.1587C146.516 77.0869 146.915 77.1308 147.057 77.2906C147.2 77.3713 147.346 77.3729 147.493 77.2954C147.646 76.9807 147.836 76.5873 148.065 76.1153C148.367 75.6441 148.339 75.2483 147.983 74.928C148.09 73.4264 148.191 72.162 148.287 71.1348C148.456 70.1084 148.516 69.0413 148.468 67.9335C148.774 67.3041 148.859 66.7514 148.724 66.2753C148.662 65.8001 148.597 65.4434 148.53 65.2054Z" fill="black"/>
<path d="M187.041 27.0785L194.077 27.3084L193.636 33.883L198.485 34.0415L198.926 27.4669L217.562 28.0759L217.122 34.6505L222.922 34.84L222.488 41.3086L228.383 41.5012L225.222 88.6896L218.376 88.4659L221.459 42.4439L215.564 42.2513L216.005 35.6767L199.365 35.133L198.925 41.7075L193.125 41.518L190.042 87.54L183.006 87.31L187.041 27.0785Z" fill="black"/>
<path d="M288.522 0.179801C288.709 0.414241 288.816 0.692318 288.843 1.01403C288.947 1.25189 289.096 1.52826 289.29 1.84313C289.01 2.50025 288.79 2.87244 288.63 2.95971C288.47 3.04699 288.445 3.24977 288.556 3.56806C288.256 3.98389 288.036 4.35609 287.896 4.68465C287.833 4.92936 287.891 5.12872 288.072 5.28273C287.758 5.5377 287.625 5.94669 287.673 6.50969C287.713 6.99226 287.622 7.39954 287.399 7.73152C287.486 8.77709 287.547 9.50094 287.581 9.90308C287.698 10.3018 287.732 10.7039 287.683 11.1095L287.304 12.5778C287.324 12.819 287.386 13.0586 287.49 13.2965C287.593 13.5343 287.62 13.8561 287.571 14.2616C287.541 14.9085 287.579 15.3508 287.682 15.5887C287.779 15.7461 287.88 15.9438 287.983 16.1816C288.008 17.4719 288.003 18.4003 287.966 18.9667C288.007 19.4493 287.884 19.9789 287.598 20.5556C287.699 21.762 287.86 22.6835 288.081 23.3201C288.379 23.8728 288.339 24.399 287.963 24.8987C288.24 25.2102 288.351 25.5284 288.294 25.8536C288.321 26.1753 288.345 26.4568 288.365 26.6981L288.768 28.4975C288.919 29.2983 288.956 29.7407 288.879 29.8245C288.803 29.9084 288.729 30.0324 288.659 30.1967C288.637 30.924 288.698 31.6478 288.842 32.3683C289.063 33.0049 289.201 33.6449 289.255 34.2883C289.503 35.2466 289.637 35.8464 289.657 36.0877C289.671 36.2485 289.854 36.4427 290.209 36.6703C289.909 37.0862 289.869 37.6124 290.09 38.249C290.388 38.8017 290.605 39.3981 290.743 40.0381C290.72 40.7653 290.754 41.1675 290.844 41.2445C290.935 41.3215 290.986 41.4404 291 41.6013C291.158 42.4826 291.157 42.9669 290.996 43.0541C290.92 43.138 290.885 43.2201 290.892 43.3006C290.919 43.6223 290.991 43.9825 291.108 44.3812C291.219 44.6995 291.204 45.0229 291.064 45.3515C291.235 46.3936 291.345 47.1962 291.392 47.7592C291.433 48.2418 291.393 48.768 291.274 49.3378C291.454 49.4918 291.513 49.6912 291.449 49.9359C291.47 50.1772 291.532 50.4168 291.635 50.6546C291.787 51.4555 291.831 51.9783 291.767 52.223C291.704 52.4677 291.683 52.7107 291.703 52.952C291.958 53.9907 292.057 54.6726 292.001 54.9978C291.938 55.2425 291.913 55.4452 291.926 55.6061C292.174 56.5644 292.26 57.0855 292.183 57.1693C292.1 57.1727 292.065 57.2549 292.078 57.4157C292.202 57.8949 292.372 58.4125 292.586 58.9687C292.793 59.4444 292.921 59.9638 292.968 60.5268C292.889 61.5792 292.866 62.3065 292.9 62.7086C293.011 63.0269 293.083 63.3871 293.117 63.7893C293.15 64.1914 293.149 64.6757 293.113 65.2421C293.161 65.8051 293.298 66.4451 293.526 67.1621C293.42 67.8928 293.419 68.3771 293.522 68.615C293.626 68.8528 293.685 69.0522 293.698 69.2131C293.773 70.0978 293.715 70.9072 293.526 71.6413C293.62 72.7673 293.778 73.6486 293.999 74.2852C294.304 74.9183 294.267 75.4848 293.891 75.9844C294.299 76.8555 294.423 77.3346 294.263 77.4219C294.096 77.4287 294.019 77.5126 294.033 77.6734C294.261 78.3904 294.336 78.7909 294.259 78.8747C294.176 78.8782 294.141 78.9603 294.155 79.1211C294.125 79.768 294.117 80.1719 294.131 80.3327C294.228 80.4901 294.283 80.6493 294.297 80.8101C294.545 81.7684 294.64 82.4102 294.584 82.7353C294.604 82.9766 294.711 83.2547 294.905 83.5695C295.16 84.6083 295.28 85.5315 295.264 86.3392C295.331 87.1435 295.472 87.8237 295.687 88.3798C296.611 88.4226 297.397 88.3097 298.044 88.041C298.554 87.1323 298.973 86.6309 299.3 86.5368C299.627 86.4427 299.922 86.4709 300.186 86.6215C300.831 87.3214 301.25 87.8288 301.444 88.1437C301.631 88.3781 301.739 88.6562 301.766 88.9779C301.716 89.3835 301.534 89.7137 301.221 89.9687C300.991 90.2203 300.719 90.4735 300.406 90.7285C299.975 90.5848 299.596 90.5599 299.269 90.6541C298.949 90.8286 298.615 90.8423 298.268 90.6951C297.857 90.7927 297.53 90.8868 297.287 90.9775C297.05 91.1486 296.716 91.1623 296.285 91.0186C295.485 91.4549 294.966 91.7587 294.729 91.9298C294.499 92.1814 294.259 92.3123 294.008 92.3225C292.222 91.9923 290.961 91.923 290.223 92.1146C289.492 92.3867 288.54 92.5065 287.365 92.474C286.961 92.652 286.637 92.7863 286.394 92.877C286.24 93.0447 285.993 93.0952 285.653 93.0284L283.914 91.7681C283.797 91.3694 283.766 91.0075 283.823 90.6823C283.886 90.4376 283.775 90.1193 283.491 89.7274C283.778 89.1508 283.872 88.7837 283.775 88.6263C283.755 88.385 283.818 88.1403 283.965 87.8921C283.73 87.0947 283.648 86.6138 283.718 86.4496C283.788 86.2853 283.816 86.1227 283.803 85.9618C283.782 85.7206 283.717 85.4408 283.606 85.1225C283.496 84.8042 283.559 84.5595 283.796 84.3884C283.428 83.9999 283.301 83.4805 283.414 82.8303C283.603 82.0961 283.511 81.4947 283.136 81.0258C283.076 80.3019 283.077 79.8176 283.14 79.5729C283.203 79.3282 283.179 79.0467 283.069 78.7284C282.855 78.1723 282.786 77.8523 282.863 77.7684C282.932 77.6041 282.961 77.4416 282.947 77.2807L282.579 74.3904C282.348 74.642 282.209 74.9705 282.159 75.3761C282.193 75.7782 282.004 76.0281 281.594 76.1256C281.849 77.1644 281.573 77.8617 280.765 78.2176C280.806 78.7002 280.666 79.0288 280.346 79.2033C280.109 79.3744 280.052 79.6996 280.176 80.1787C279.71 80.6014 279.496 81.054 279.537 81.5366C279.167 82.1167 278.881 82.6934 278.678 83.2666C277.974 83.8605 277.642 84.3986 277.683 84.8812C277.07 85.552 276.731 86.0098 276.668 86.2545C276.598 86.4188 276.487 86.5847 276.333 86.7525C275.93 86.9304 275.564 87.0665 275.237 87.1606C274.987 87.1708 274.743 87.2615 274.506 87.4327C274.164 88.3345 273.919 88.9095 273.772 89.1576C273.702 89.3219 273.591 89.4879 273.437 89.6556C272.79 89.9242 272.425 90.0603 272.341 90.0637C272.258 90.0671 272.056 90.1561 271.736 90.3307C271.346 90.6695 271.064 90.8021 270.89 90.7285C270.716 90.6549 270.553 90.702 270.399 90.8697C269.382 91.7185 268.415 92.1617 267.497 92.1993C266.669 92.314 265.95 92.2225 265.339 91.9247C265.018 92.0992 264.685 92.1129 264.337 91.9658C264.08 91.8956 263.792 91.9478 263.471 92.1223C262.429 91.6808 261.787 91.5054 261.543 91.5961C261.383 91.6834 261.171 91.6518 260.907 91.5012C260.025 90.9724 259.543 90.7097 259.459 90.7131C259.369 90.6361 259.192 90.5223 258.928 90.3717C258.484 90.0671 258.175 89.8781 258.001 89.8045C257.828 89.7309 257.609 89.6188 257.345 89.4682C256.533 88.7752 255.992 88.3131 255.721 88.0821C255.534 87.8477 255.27 87.6971 254.93 87.6303C254.542 87.0006 254.264 86.6892 254.098 86.696C254.014 86.6994 253.882 86.6241 253.702 86.4701C253.23 85.8438 252.953 85.5324 252.87 85.5358C252.779 85.4588 252.682 85.3013 252.579 85.0635C251.6 84.3773 251.052 83.8348 250.935 83.4361C250.817 83.0374 250.543 82.7661 250.113 82.6224C250.162 82.2168 250.059 81.979 249.802 81.9088C249.621 81.7548 249.441 81.6008 249.26 81.4468C249.046 80.8906 248.919 80.3713 248.878 79.8887C248.837 79.4061 248.515 79.0562 247.911 78.8388C247.877 78.4367 247.766 78.1184 247.579 77.884C247.475 77.6461 247.33 77.4099 247.143 77.1755C246.998 76.4551 246.794 76.0196 246.531 75.869C246.343 75.6345 246.233 75.3162 246.199 74.9141C246.235 74.3477 246.16 73.9472 245.972 73.7128C245.869 73.4749 245.81 73.2756 245.797 73.1147C245.679 72.716 245.645 72.3139 245.695 71.9083C245.738 71.4223 245.701 70.9799 245.584 70.5812C245.466 70.1825 245.311 69.8257 245.117 69.5109C244.999 69.1121 244.917 68.6313 244.87 68.0683C244.753 67.6696 244.684 67.3495 244.664 67.1083C244.643 66.867 244.623 66.6257 244.603 66.3844C244.625 65.6571 244.585 65.1746 244.481 64.9367C244.454 64.615 244.469 64.2916 244.525 63.9664C244.511 63.8056 244.536 63.6028 244.599 63.3581C244.656 63.0329 244.677 62.7899 244.664 62.6291C244.65 62.4682 244.637 62.3074 244.623 62.1465C244.603 61.9052 244.537 61.6254 244.427 61.3072C244.332 60.1812 244.341 59.293 244.454 58.6427C244.504 58.2372 244.515 57.8735 244.488 57.5518C244.544 57.2267 244.649 56.9803 244.803 56.8126C244.609 56.4977 244.585 56.2162 244.732 55.9681C244.872 55.6395 244.97 55.3127 245.026 54.9875C244.875 54.1867 244.834 53.7041 244.904 53.5398C244.967 53.2951 244.992 53.0923 244.979 52.9315C245.028 52.5259 244.998 52.164 244.887 51.8457C244.86 51.524 244.92 51.2391 245.067 50.9909C245.346 50.3338 245.525 49.9633 245.601 49.8795C245.678 49.7956 245.751 49.6716 245.821 49.5073C245.884 49.2626 245.864 49.0213 245.76 48.7834C245.733 48.4617 245.751 48.1785 245.815 47.9338C246.011 47.2801 246.252 46.6649 246.539 46.0882C246.902 45.4277 247.098 44.774 247.127 44.1271C247.524 43.8687 247.776 43.3742 247.882 42.6435C248.649 41.805 249.064 41.2634 249.127 41.0187C249.19 40.7739 249.385 40.6045 249.712 40.5104L250.362 39.2732C251.315 38.6691 251.866 38.243 252.012 37.9949C252.159 37.7468 252.438 37.5739 252.848 37.4764C253.065 37.064 253.33 36.7303 253.643 36.4753C254.033 36.1365 254.42 35.7574 254.803 35.3382C255.507 34.7444 256.064 34.3987 256.475 34.3012C256.885 34.2036 257.292 34.0659 257.696 33.8879C258.1 33.7099 258.465 33.5739 258.792 33.4798C259.196 33.3018 259.467 33.0485 259.607 32.72C259.941 32.7063 260.32 32.7311 260.744 32.7944C261.251 32.8543 261.755 32.874 262.256 32.8534C263.508 32.8021 264.349 32.8483 264.78 32.992C265.21 33.1358 265.753 33.1135 266.407 32.9253C267.289 33.4541 268.063 33.7048 268.731 33.6774C268.911 33.8314 269.095 34.0256 269.282 34.2601C269.463 34.4141 269.758 34.4423 270.168 34.3448C271.661 35.1713 272.598 35.8592 272.98 36.4085C273.361 36.9578 273.899 37.3797 274.593 37.674C274.78 37.9084 274.967 38.1429 275.155 38.3773C275.335 38.5313 275.522 38.7658 275.716 39.0806C276.201 39.8678 276.829 40.3666 277.6 40.5771C277.925 41.4516 278.094 41.9692 278.108 42.1301C278.198 42.2071 278.33 42.2824 278.504 42.356C278.898 43.0661 279.112 43.6223 279.146 44.0244C279.18 44.4266 279.412 44.6995 279.843 44.8432C280.026 44.0287 280.065 43.5025 279.962 43.2646C279.934 42.9429 280.004 42.7786 280.171 42.7718C279.81 42.4638 279.645 41.9863 279.674 41.3395C279.697 40.6122 279.774 40.0441 279.908 39.6351C279.75 38.7538 279.622 38.2344 279.525 38.077C279.428 37.9196 279.373 37.7604 279.36 37.5996C279.389 36.9527 279.293 36.311 279.072 35.6744C278.955 35.2757 278.879 34.8753 278.846 34.4731C278.888 33.9871 278.809 33.5465 278.609 33.1512C278.735 32.6618 278.768 32.0551 278.707 31.3313C278.646 30.6074 278.63 29.9221 278.66 29.2752C278.509 28.4744 278.433 28.0739 278.433 28.0739C278.517 28.0705 278.555 28.0286 278.548 27.9481C278.327 27.3116 278.21 26.9128 278.196 26.752C278.266 26.5877 278.333 26.3832 278.396 26.1385C278.362 25.7364 278.29 25.3762 278.18 25.0579C278.069 24.7396 278 24.4196 277.973 24.0979C277.842 23.5383 277.84 23.0138 277.966 22.5244C278.169 21.9511 278.049 21.5122 277.605 21.2076C277.841 21.0364 277.908 20.8319 277.804 20.5941C277.7 20.3562 277.638 20.1166 277.618 19.8754C277.634 19.0677 277.587 18.5047 277.476 18.1864C277.442 17.7842 277.409 17.3821 277.375 16.9799C277.648 16.2424 277.757 15.5519 277.703 14.9085C277.622 13.9433 277.578 13.4206 277.571 13.3401C277.641 13.1758 277.711 13.0116 277.781 12.8473C277.637 12.1269 277.599 11.6845 277.669 11.5202C277.823 11.3525 277.934 11.1865 278.004 11.0222C277.797 10.5465 277.756 10.0639 277.882 9.57453C278.009 9.08512 278.052 8.59913 278.011 8.11656C278.074 7.87185 278.057 7.67078 277.96 7.51334C277.94 7.27206 277.92 7.03077 277.9 6.78949C277.872 6.46777 277.849 6.18627 277.829 5.94499C277.885 5.61985 277.823 5.38028 277.642 5.22627C277.295 5.0791 276.961 5.09279 276.641 5.26734C276.404 5.43846 276.122 5.57108 275.795 5.6652C275.385 5.76274 274.971 5.82007 274.554 5.83718C274.213 5.77044 273.838 5.78585 273.427 5.88339C272.857 6.0682 272.53 6.16232 272.446 6.16574C272.356 6.08874 272.228 6.05366 272.061 6.0605C270.983 6.18542 270.068 6.26329 269.317 6.29409C268.65 6.32147 268.031 6.42757 267.46 6.61238C267.28 6.45837 267.019 6.348 266.679 6.28126C266.338 6.21452 266.071 6.02372 265.877 5.70885C265.286 5.65238 264.942 5.54542 264.845 5.38799C264.748 5.23056 264.651 5.07312 264.554 4.91569C264.236 4.12167 264.237 3.63739 264.558 3.46284C264.871 3.20787 265.195 3.07353 265.528 3.05984C265.862 3.04615 266.161 3.1146 266.425 3.26519C266.765 3.33193 267.148 3.39696 267.572 3.46027C268.323 3.42947 268.737 3.37214 268.813 3.28829C268.973 3.20102 269.137 3.15396 269.304 3.14711C269.978 3.20016 270.604 3.17449 271.181 3.07011C271.842 2.9623 272.423 2.89812 272.923 2.87759L274.551 2.81085C275.615 2.52507 276.269 2.33683 276.513 2.24614C276.756 2.15544 277 2.06475 277.243 1.97405C277.897 1.78581 278.305 1.64806 278.465 1.56078C278.708 1.47009 279 1.45811 279.341 1.52485C280.565 1.15179 281.386 0.956711 281.804 0.939599C282.214 0.842058 282.496 0.709436 282.649 0.541734C283.554 0.343229 284.385 0.268789 285.143 0.318414C285.894 0.287612 286.513 0.181514 287 0.000121667C287.173 0.0737049 287.347 0.147288 287.521 0.220872C287.778 0.291032 288.112 0.277342 288.522 0.179801ZM278.07 49.153C277.793 48.8416 277.689 48.6037 277.759 48.4394C277.912 48.2717 277.937 48.0689 277.833 47.8311C277.633 47.4358 277.481 47.1192 277.377 46.8813C277.266 46.5631 277.152 46.2045 277.035 45.8058C276.494 45.3438 276.248 44.91 276.298 44.5044C275.743 43.8815 275.421 43.5316 275.33 43.4546C275.317 43.2937 275.262 43.1346 275.165 42.9771C274.964 42.5818 274.728 42.2687 274.458 42.0377C274.264 41.7228 274.025 41.3694 273.74 40.9776C272.922 40.2041 272.381 39.742 272.117 39.5915C271.846 39.3604 271.621 39.1679 271.44 39.0139C270.919 38.7932 270.489 38.6494 270.148 38.5827C269.884 38.4321 269.62 38.2815 269.356 38.1309C268.134 37.5354 267.279 37.3283 266.792 37.5097C266.605 37.2753 266.345 37.1649 266.011 37.1786C265.76 37.1889 265.507 37.1589 265.25 37.0888C264.345 37.2873 263.806 37.3497 263.633 37.2761C263.542 37.1991 263.417 37.2043 263.257 37.2916C262.526 37.5636 262.001 37.787 261.681 37.9615C261.354 38.0556 260.988 38.1917 260.585 38.3696C260.452 38.7786 260.232 39.1508 259.925 39.4862C259.611 39.7412 259.298 39.9962 258.984 40.2511C258.405 41.3241 258.003 42.0266 257.78 42.3585C257.633 42.6067 257.452 42.9369 257.235 43.3494C256.816 44.335 256.62 44.9887 256.647 45.3104C256.674 45.6322 256.659 45.9556 256.603 46.2807C256.282 46.4553 256.056 46.747 255.923 47.156C255.783 47.4846 255.636 47.7327 255.483 47.9004C255.774 48.3727 255.866 48.9742 255.76 49.7049C255.654 50.4356 255.451 51.0089 255.151 51.4247C255.392 52.3026 255.412 53.0281 255.209 53.6014C255.089 54.1713 254.973 54.7813 254.86 55.4316C255.018 56.3129 255.017 56.7972 254.857 56.8844C254.78 56.9683 254.755 57.1711 254.782 57.4928C254.983 57.8881 255.103 58.327 255.144 58.8096C255.261 59.2083 255.34 59.6489 255.381 60.1315L255.638 61.6947C255.663 62.985 255.646 64.277 255.587 65.5707C255.521 66.784 255.786 67.9433 256.382 69.0488C256.346 69.6152 256.425 70.0559 256.618 70.3707C256.806 70.6052 256.916 70.9235 256.95 71.3256C256.664 71.9023 256.627 72.4687 256.842 73.0249C257.133 73.4972 257.378 73.931 257.579 74.3263C257.89 75.0399 258.021 75.5994 257.971 76.005C257.998 76.3267 258.029 76.6886 258.063 77.0908C258.166 77.3286 258.27 77.5665 258.374 77.8044C258.471 77.9618 258.529 78.1612 258.55 78.4025C258.771 79.039 258.895 79.5182 258.922 79.8399C259.393 80.4662 259.674 80.8179 259.764 80.8949C259.854 80.9719 259.948 81.0891 260.045 81.2465C260.196 82.0474 260.32 82.5265 260.417 82.684C260.507 82.761 260.559 82.8799 260.573 83.0408C261.134 83.7441 261.331 84.0992 261.164 84.106C261.081 84.1095 261.088 84.1899 261.185 84.3473C261.76 85.2115 261.971 85.7274 261.817 85.8951C261.741 85.979 261.751 86.0996 261.848 86.2571L263.617 87.8793C264.081 88.4252 264.355 88.6964 264.439 88.693C264.606 88.6862 264.776 88.7195 264.95 88.7931C265.804 89.0002 266.35 89.0181 266.587 88.847C266.907 88.6725 267.273 88.5364 267.683 88.4389C268.615 88.5621 269.237 88.4962 269.55 88.2412C269.857 87.9058 270.212 87.6491 270.616 87.4712C270.756 87.1426 270.948 86.933 271.191 86.8423C271.518 86.7482 271.758 86.6173 271.912 86.4496C272.609 85.7753 272.995 85.3963 273.072 85.3124C273.149 85.2286 273.177 85.066 273.157 84.8247C273.7 84.3182 274.01 84.023 274.087 83.9392C274.24 83.7715 274.352 83.6055 274.422 83.4412C275.015 82.5291 275.347 81.9909 275.417 81.8266C275.487 81.6624 275.598 81.4964 275.752 81.3287C275.968 80.9163 276.275 80.5809 276.672 80.3225C276.561 80.0042 276.624 79.7595 276.861 79.5883C277.091 79.3368 277.283 79.1272 277.436 78.9594C277.933 77.8899 278.247 77.1507 278.38 76.7417C278.59 76.2488 278.803 75.7962 279.02 75.3838C279.272 74.405 279.388 73.7949 279.368 73.5536C279.348 73.3123 279.46 73.1464 279.703 73.0557C279.642 72.3318 279.765 71.8022 280.072 71.4668C280.379 71.1314 280.505 70.642 280.451 69.9985C280.446 68.9495 280.507 68.1803 280.634 67.6909C280.843 67.1981 281.053 66.7052 281.263 66.2124C281.509 65.1531 281.618 64.4627 281.591 64.1409C281.661 63.9767 281.641 63.7354 281.53 63.4171C281.413 63.0184 281.389 62.7369 281.459 62.5726C281.211 61.6143 281.074 60.9743 281.047 60.6526C281.02 60.3309 280.999 60.0896 280.986 59.9287C280.911 59.044 280.902 58.4391 280.959 58.1139C281.008 57.7084 281.023 57.385 281.003 57.1437C280.928 56.259 280.846 55.7781 280.756 55.7011C280.666 55.6241 280.614 55.5051 280.6 55.3443L280.604 53.8914C280.662 52.5977 280.551 51.2707 280.269 49.9102C279.838 49.7665 279.411 49.663 278.987 49.5997C278.646 49.5329 278.341 49.384 278.07 49.153Z" fill="black"/>
<path d="M331.438 41.1921C332.215 43.5633 332.604 46.4839 332.604 49.954C332.604 57.0677 331.195 67.1887 328.376 80.3172C336.054 68.2876 343.198 58.8894 349.807 52.1228C356.465 45.2983 361.787 41.8861 365.772 41.8861C368.591 41.8861 370 44.6911 370 50.301C370 64.5283 363.002 80.5196 349.006 98.2748C342.639 106.372 336.662 112.329 331.073 116.146C325.484 119.963 319.045 122.536 311.755 123.867C305.486 125.023 300.967 126.758 298.197 129.072C295.427 131.385 294.042 134.595 294.042 138.701C294.042 141.824 295.378 144.34 298.051 146.249C300.675 148.215 304.101 149.198 308.329 149.198C313.529 149.198 318.292 147.665 322.617 144.6C321.499 151.83 316.761 155.444 308.402 155.444C303.397 155.444 299.314 154.027 296.156 151.193C292.997 148.36 291.417 144.687 291.417 140.176C291.417 134.508 293.774 128.551 298.488 122.305C300.772 119.355 303.227 117.331 305.851 116.232C308.426 115.134 313.286 114.15 320.43 113.283C326.894 112.473 332.069 110.594 335.957 107.644C342.226 102.902 347.572 96.6843 351.994 88.9923C354.57 84.5391 356.733 79.5653 358.482 74.071C360.232 68.5189 361.106 63.8632 361.106 60.104C361.106 55.3615 359.77 52.9903 357.097 52.9903C352.578 52.9903 346.308 58.7449 338.29 70.2539C330.271 81.763 323.37 94.9493 317.587 109.813L316.931 111.461H314.38L315.109 108.164C320.649 84.9728 323.419 68.2297 323.419 57.9352C323.419 54.2916 322.423 52.4698 320.43 52.4698C319.604 52.4698 318.486 52.7879 317.077 53.4241C316.834 53.5397 316.494 53.6843 316.056 53.8578L315.4 51.2553C315.983 50.9083 316.348 50.6769 316.494 50.5613L323.346 46.5707L330.344 41.9728C330.49 41.8572 330.854 41.5969 331.438 41.1921Z" fill="black"/>
</svg>
