<svg width="1400" height="588" viewBox="0 0 1400 588" fill="none" xmlns="http://www.w3.org/2000/svg">
<path d="M378.74 221.181C389.065 207.74 403.787 188.891 422.904 164.636C441.958 140.212 460.633 118.475 478.929 99.4253C497.397 80.1638 517.137 63.2886 538.146 48.7996C559.329 34.0986 580.523 24.8124 601.73 20.941C615.161 18.4891 626.673 18.6446 636.266 21.4076C645.859 24.1706 652.047 29.2706 654.83 36.7075C656.285 40.595 656.159 43.9585 654.452 46.798C652.746 49.6375 649.89 51.4229 645.884 52.1541C638.108 53.5737 633.24 51.6636 631.279 46.4239C629.318 41.1842 631.99 37.8976 639.295 36.5642C640.237 36.3921 641.628 36.409 643.467 36.615C645.243 36.6519 646.367 36.6274 646.838 36.5413C648.252 36.2833 648.611 35.2246 647.915 33.3653C646.207 28.8018 641.25 25.644 633.042 23.8921C625.07 22.0972 615.311 22.2536 603.765 24.3614C582.558 28.2328 561.223 37.8156 539.759 53.1097C518.296 68.4037 499.694 84.6198 483.955 101.758C468.153 118.727 452.794 136.879 437.877 156.215C423.133 175.338 412.322 189.5 405.444 198.701C392.515 214.603 376.351 234.979 356.952 259.827C337.491 284.507 320.103 305.648 304.789 323.25C289.711 340.809 274.613 356.295 259.494 369.709C244.611 383.079 229.463 394.06 214.05 402.652L210.084 400.126C230.183 372.441 243.613 349.134 250.375 330.204C275.817 261.638 302.001 207.834 328.927 168.791L345.234 145.771C356.214 130.043 366.264 116.201 375.383 104.244C386.243 90.8854 390.73 84.3783 388.845 84.7224C387.196 85.0236 380.007 92.3849 367.279 106.807C354.724 121.016 340.43 137.981 324.399 157.7C308.367 177.42 294.798 194.974 283.691 210.364L273.986 223.782C262.207 240.739 248.804 259.076 233.779 278.792C218.69 298.34 203.089 317.529 186.977 336.36C170.801 355.023 154.002 372.354 136.579 388.355C119.156 404.357 101.976 416.973 85.0403 426.204L81.0741 423.677C92.7218 411.078 103.185 395.986 112.464 378.403C121.915 360.607 132.463 338.006 144.108 310.601C150.767 294.759 154.291 286.351 154.682 285.377L157.353 278.389C179.575 230.815 205.598 188.687 235.42 152.004L254.037 129.104C236.062 144.303 217.885 153.58 199.506 156.936C180.184 160.463 168.246 156.142 163.692 143.972C163.502 143.465 163.024 140.844 162.259 136.108C161.494 131.373 160.922 128.498 160.542 127.484C159.53 124.779 156.538 122.165 151.566 119.642C146.531 116.95 139.832 115.194 131.47 114.373C123.044 113.383 113.529 113.856 102.926 115.792C79.5979 120.05 59.9002 127.619 43.8326 138.497C28.0005 149.332 17.1602 161.062 11.3117 173.686C5.39983 186.141 4.12006 196.847 7.47236 205.806C10.7614 214.595 18.076 221.024 29.4163 225.093C40.9289 228.95 53.9899 229.545 68.5992 226.878C87.9211 223.351 104.297 216.66 117.727 206.805C131.392 196.907 143.879 183.522 155.187 166.651L158.256 168.8C138.957 202.658 109.278 223.244 69.2205 230.557C52.7262 233.568 38.3922 232.934 26.2185 228.656C14.0449 224.378 6.02889 217.084 2.1706 206.773C-1.6877 196.463 -0.402366 184.762 6.0266 171.671C12.3923 158.411 23.7268 146.32 40.0301 135.399C56.3334 124.478 77.0915 116.716 102.304 112.113C121.155 108.672 137.492 108.94 151.315 112.917C165.075 116.725 173.694 123.277 177.173 132.573C177.489 133.418 178.044 135.574 178.838 139.04C179.632 142.507 180.123 144.494 180.313 145.001C183.033 152.269 190.166 154.849 201.712 152.741C218.442 149.687 233.637 141.857 247.296 129.252C261.191 116.603 273.913 103.176 285.463 88.9693C287.531 86.4249 289.255 84.3045 290.634 82.6082C291.95 80.7429 293.188 79.3431 294.349 78.409C295.682 77.2627 297.291 76.5176 299.176 76.1734C301.061 75.8293 302.13 75.9953 302.383 76.6714C302.826 77.8545 299.011 82.7944 290.937 91.491C271.779 111.601 256.236 131.953 244.308 152.549C232.616 173.101 221.419 196.994 210.716 224.227C202.013 246.04 195.128 262.284 190.06 272.96C185.165 283.423 176.274 298.679 163.386 318.728C150.435 338.607 131.56 365.527 106.761 399.487L96.6333 413.795C112.511 402.41 127.334 390.224 141.103 377.237C154.871 364.251 166.332 352.498 175.486 341.979C184.875 331.417 194.655 319.881 204.826 307.371C214.933 294.692 228.353 277.074 245.085 254.518L263.133 230.097C277.107 210.934 290.777 192.639 304.142 175.211C317.444 157.615 329.902 141.799 341.515 127.761C353.064 113.555 364.93 100.193 377.113 87.6769C389.295 75.1606 401.135 64.422 412.634 55.4613L418.178 57.1578C389.856 97.1777 373.09 121.997 367.879 131.616C366.017 135.386 361.858 144.452 355.4 158.812C348.943 173.172 343.243 185.859 338.303 196.873C333.299 207.718 327.332 220.363 320.404 234.81C301.099 273.364 286.319 300.8 276.063 317.118C265.979 333.224 251.02 354.463 231.185 380.836L224.229 390.502C237.268 381.621 251.62 369.521 267.285 354.202C282.949 338.883 297.568 323.123 311.14 306.923C324.948 290.679 337.877 274.776 349.926 259.214C361.912 243.483 371.517 230.806 378.74 221.181Z" fill="white"/>
<path d="M383.076 222.605C393.401 209.163 408.123 190.315 427.24 166.06C446.294 141.635 464.969 119.899 483.265 100.849C501.734 81.5876 521.473 64.7123 542.483 50.2234C563.665 35.5224 584.859 26.2362 606.066 22.3647C619.497 19.9128 631.009 20.0684 640.602 22.8314C650.195 25.5944 656.383 30.6944 659.166 38.1313C660.621 42.0188 660.495 45.3823 658.788 48.2218C657.082 51.0613 654.226 52.8466 650.22 53.5779C642.444 54.9974 637.576 53.0873 635.615 47.8477C633.654 42.608 636.326 39.3214 643.631 37.9879C644.573 37.8159 645.964 37.8328 647.804 38.0388C649.579 38.0757 650.703 38.0512 651.174 37.9651C652.588 37.707 652.947 36.6484 652.251 34.7891C650.544 30.2255 645.586 27.0678 637.378 25.3159C629.407 23.5209 619.648 23.6774 608.102 25.7851C586.894 29.6566 565.559 39.2393 544.095 54.5334C522.632 69.8275 504.03 86.0436 488.292 103.182C472.489 120.151 457.13 138.303 442.213 157.638C427.469 176.762 416.658 190.924 409.78 200.124C396.851 216.027 380.687 236.403 361.289 261.251C341.827 285.931 324.439 307.071 309.125 324.673C294.047 342.233 278.949 357.719 263.83 371.133C248.947 384.503 233.799 395.484 218.386 404.076L214.42 401.55C234.519 373.865 247.949 350.558 254.711 331.628C280.154 263.062 306.338 209.257 333.263 170.215L349.57 147.195C360.55 131.467 370.6 117.625 379.719 105.668C390.579 92.3092 395.066 85.8021 393.181 86.1462C391.532 86.4473 384.343 93.8087 371.615 108.23C359.06 122.44 344.766 139.404 328.735 159.124C312.703 178.843 299.134 196.398 288.027 211.788L278.322 225.206C266.543 242.163 253.141 260.5 238.115 280.216C223.026 299.763 207.425 318.953 191.313 337.784C175.137 356.447 158.338 373.778 140.915 389.779C123.492 405.78 106.312 418.396 89.3764 427.627L85.4103 425.101C97.0579 412.502 107.521 397.41 116.8 379.826C126.251 362.03 136.799 339.43 148.444 312.024C155.103 296.183 158.627 287.775 159.018 286.801L161.689 279.813C183.912 232.239 209.934 190.111 239.756 153.428L258.374 130.528C240.399 145.727 222.221 155.004 203.842 158.359C184.52 161.887 172.582 157.566 168.028 145.396C167.838 144.889 167.361 142.268 166.595 137.532C165.83 132.796 165.258 129.921 164.878 128.907C163.866 126.203 160.874 123.589 155.902 121.066C150.867 118.374 144.168 116.617 135.806 115.797C127.38 114.807 117.865 115.28 107.262 117.216C83.9341 121.474 64.2364 129.042 48.1687 139.921C32.3367 150.756 21.4964 162.486 15.6478 175.11C9.73597 187.565 8.4562 198.271 11.8085 207.229C15.0975 216.019 22.4122 222.448 33.7524 226.517C45.265 230.374 58.326 230.969 72.9353 228.302C92.2573 224.775 108.633 218.083 122.063 208.228C135.728 198.33 148.215 184.946 159.523 168.075L162.592 170.223C143.293 204.082 113.614 224.668 73.5567 231.98C57.0623 234.992 42.7283 234.358 30.5546 230.08C18.381 225.802 10.365 218.508 6.50673 208.197C2.64843 197.887 3.93377 186.186 10.3627 173.095C16.7285 159.835 28.063 147.744 44.3663 136.823C60.6696 125.902 81.4276 118.14 106.64 113.537C125.491 110.096 141.828 110.364 155.651 114.341C169.411 118.149 178.03 124.701 181.509 133.997C181.825 134.842 182.38 136.998 183.174 140.464C183.968 143.931 184.46 145.917 184.649 146.425C187.369 153.692 194.502 156.273 206.048 154.165C222.778 151.111 237.973 143.281 251.632 130.675C265.527 118.027 278.249 104.6 289.799 90.3931C291.867 87.8487 293.591 85.7283 294.97 84.032C296.286 82.1667 297.524 80.7669 298.685 79.8327C300.018 78.6865 301.627 77.9413 303.513 77.5972C305.398 77.2531 306.467 77.4191 306.72 78.0951C307.162 79.2783 303.347 84.2182 295.274 92.9147C276.115 113.024 260.572 133.377 248.645 153.972C236.952 174.525 225.755 198.418 215.052 225.651C206.349 247.464 199.464 263.708 194.397 274.383C189.502 284.847 180.61 300.103 167.723 320.152C154.772 340.031 135.896 366.951 111.097 400.911L100.969 415.219C116.847 403.833 131.671 391.647 145.439 378.661C159.207 365.675 170.668 353.922 179.822 343.403C189.211 332.841 198.991 321.305 209.162 308.795C219.269 296.116 232.689 278.498 249.421 255.942L267.469 231.521C281.444 212.357 295.113 194.062 308.478 176.635C321.781 159.039 334.238 143.222 345.851 129.185C357.401 114.978 369.266 101.617 381.449 89.1006C393.631 76.5843 405.471 65.8458 416.97 56.885L422.514 58.5815C394.192 98.6015 377.426 123.421 372.215 133.039C370.353 136.81 366.194 145.875 359.736 160.236C353.279 174.596 347.58 187.283 342.639 198.297C337.635 209.142 331.668 221.787 324.74 236.234C305.435 274.788 290.655 302.224 280.399 318.542C270.315 334.648 255.356 355.887 235.521 382.259L228.565 391.925C241.604 383.045 255.956 370.945 271.621 355.626C287.285 340.307 301.904 324.547 315.476 308.346C329.284 292.102 342.213 276.2 354.262 260.638C366.249 244.907 375.853 232.229 383.076 222.605Z" fill="white"/>
<path d="M598.857 307.199C598.032 307.19 596.935 307.028 595.567 306.714C594.205 306.1 593.101 306.238 592.256 307.126C590.901 306.213 589.133 305.296 586.953 304.375C584.773 303.453 582.575 303.279 580.361 303.853C577.329 304.119 575.531 304.548 574.967 305.14C574.41 305.433 573.719 305.575 572.894 305.566C569.606 304.931 567.272 304.756 565.89 305.04C564.783 305.327 563.545 305.313 562.176 304.999C558.077 303.757 555.337 303.278 553.955 303.562C552.854 303.55 551.616 303.536 550.241 303.521C547.504 302.892 545.448 302.571 544.072 302.555C542.697 302.54 541.318 302.675 539.936 302.959C538.836 302.946 537.595 303.082 536.213 303.366C534.562 303.348 531.674 303.316 527.548 303.271C523.704 302.929 520.675 303.045 518.46 303.619C516.26 303.595 514.606 303.726 513.499 304.013C512.392 304.3 511.711 303.994 511.456 303.093C510.611 303.982 509.645 304.12 508.558 303.51C507.746 302.903 506.79 302.593 505.69 302.581C502.376 303.143 500.306 303.419 499.481 303.41C498.937 303.105 498.25 303.097 497.418 303.387C496.304 303.973 494.653 303.955 492.466 303.333C492.989 304.535 492.959 305.881 492.375 307.371C492.073 308.564 491.905 309.909 491.871 311.404C492.87 315.903 493.215 318.899 492.906 320.391C492.879 321.588 493.127 322.787 493.65 323.99C492.791 325.476 492.61 327.419 493.106 329.818C493.863 332.818 494.091 334.915 493.789 336.109C493.493 337.003 493.748 337.903 494.553 338.81C493.66 341.792 493.486 343.435 494.029 343.741C494.579 343.747 494.847 344.049 494.834 344.647C495.578 348.246 495.943 350.344 495.93 350.942C496.191 351.543 496.594 351.997 497.137 352.302C497.861 356.798 498.206 359.793 498.172 361.289C498.413 362.788 498.655 364.286 498.896 365.785C498.862 367.28 499.234 369.08 500.012 371.183C501.072 372.989 502.004 374.346 502.809 375.252C505.183 379.767 507.024 383.527 508.332 386.533C509.914 389.542 511.92 392.108 514.348 394.229C514.865 395.73 516.079 396.791 517.991 397.41C520.178 398.033 521.392 399.093 521.633 400.592C523.015 400.308 524.105 400.769 524.904 401.975C525.984 402.884 527.067 403.644 528.154 404.254C532.823 404.605 535.976 405.089 537.613 405.705C539.25 406.321 541.031 406.64 542.957 406.662C544.627 405.782 545.597 405.494 545.865 405.796C546.415 405.802 546.965 405.808 547.516 405.814C550.28 405.246 551.944 404.666 552.507 404.074C553.353 403.186 554.192 402.597 555.024 402.307C557.506 402.035 559.022 401.902 559.572 401.908C560.404 401.618 561.102 401.177 561.666 400.585C564.169 399.416 565.702 398.535 566.265 397.943C566.829 397.351 567.661 397.061 568.761 397.073C570.184 394.994 571.308 393.959 572.133 393.969C572.965 393.679 573.663 393.237 574.227 392.645C575.347 391.76 576.471 390.725 577.598 389.541C579.001 388.36 579.994 387.024 580.578 385.535C583.369 383.77 584.906 382.74 585.188 382.444C585.751 381.852 586.315 381.26 586.879 380.668C588.912 375.903 590.503 372.48 591.651 370.398C592.805 368.017 593.55 365.482 593.886 362.793C594.209 360.703 594.115 358.757 593.605 356.956C593.103 354.856 592.871 352.909 592.912 351.114C592.161 347.815 591.511 346.162 590.961 346.156C590.692 345.854 590.847 345.108 591.424 343.917C590.089 342.107 588.469 340.743 586.564 339.825C584.659 338.906 582.898 337.69 581.281 336.176C579.081 336.152 577.159 335.981 575.515 335.664C573.871 335.346 572.355 335.479 570.966 336.062C568.739 337.234 566.917 338.71 565.501 340.49C564.085 342.269 562.672 343.899 561.263 345.38C560.109 347.761 559.525 349.25 559.511 349.848C559.773 350.45 559.615 351.345 559.038 352.536C558.461 353.726 558.3 354.772 558.554 355.672C559.084 356.575 559.067 357.323 558.504 357.915C561.207 360.039 562.968 361.256 563.786 361.564C564.887 361.576 565.427 362.031 565.406 362.928C567.063 362.647 568.298 362.81 569.11 363.418C570.196 364.028 571.142 364.787 571.947 365.693L571.815 371.526C568.776 372.091 567.525 372.675 568.061 373.279C568.605 373.585 568.594 374.033 568.031 374.625C565.273 374.894 563.485 374.875 562.667 374.566C562.124 374.261 561.58 373.956 561.037 373.651C558.3 373.022 556.529 372.255 555.724 371.348C554.644 370.439 553.698 369.68 552.886 369.073C552.074 368.466 551.27 367.559 550.471 366.354C548.895 363.045 547.97 361.389 547.695 361.386C547.42 361.383 547.289 361.083 547.302 360.484C547.041 359.883 546.92 359.134 546.941 358.237C546.961 357.339 546.844 356.44 546.589 355.54C546.609 354.643 546.495 353.594 546.247 352.395C546.274 351.198 546.432 350.302 546.721 349.707C547.58 348.221 548.157 347.03 548.452 346.136C548.754 344.943 549.318 344.35 550.143 344.36C549.936 341.365 550.533 339.278 551.936 338.096C553.338 336.915 554.204 335.129 554.533 332.739C556.774 330.969 557.891 330.233 557.885 330.533C558.16 330.536 558.576 330.391 559.133 330.097C560.528 329.215 561.367 328.626 561.649 328.33C562.212 327.738 562.903 327.596 563.722 327.904C567.077 325.548 569.304 324.375 570.405 324.388C571.512 324.101 572.347 323.661 572.911 323.069C575.648 323.697 578.935 324.332 582.773 324.973C586.033 326.804 588.076 327.724 588.901 327.733C592.718 329.271 595.029 330.493 595.834 331.4C596.914 332.309 597.997 333.069 599.084 333.68C599.614 334.583 600.01 335.335 600.271 335.937C600.808 336.541 601.341 337.295 601.871 338.198C602.408 338.803 602.8 339.704 603.048 340.904C603.578 341.807 604.108 342.711 604.637 343.614C604.831 347.207 605.052 349.603 605.3 350.802C605.548 352.002 605.662 353.05 605.642 353.947C606.298 361.434 605.059 367.554 601.925 372.307C601.589 374.996 601.277 376.638 600.988 377.233C600.707 377.529 600.284 377.973 599.72 378.565C597.418 383.028 595.968 386.303 595.371 388.391C592.009 391.046 590.043 392.82 589.473 393.711C588.345 394.895 587.221 395.93 586.101 396.815C585.262 397.404 584.561 397.995 583.997 398.587C582.608 399.17 581.632 399.758 581.068 400.35C580.78 400.945 580.223 401.238 579.398 401.229C576.304 404.187 573.644 406.252 571.416 407.424C569.189 408.596 566.83 409.468 564.341 410.039C561.55 411.803 559.876 412.832 559.319 413.125C557.641 414.303 556.528 414.889 555.977 414.883C555.427 414.877 554.874 415.021 554.317 415.314C553.21 415.601 552.244 415.74 551.418 415.731C550.593 415.721 549.49 415.859 548.108 416.143C547.276 416.433 546.306 416.721 545.199 417.008C544.367 417.298 543.538 417.439 542.713 417.43C542.163 417.424 541.479 417.266 540.66 416.958C539.835 416.949 539.01 416.94 538.185 416.931C537.084 416.919 535.984 416.907 534.884 416.895C534.052 417.185 533.086 417.324 531.985 417.311C528.966 416.979 527.319 416.811 527.044 416.808C527.038 417.107 526.759 417.254 526.209 417.248C522.11 416.006 519.51 415.379 518.41 415.367C517.585 415.357 516.77 414.9 515.965 413.993C514.583 414.277 513.207 414.262 511.839 413.948C510.745 413.636 509.518 413.174 508.156 412.561C505.137 412.228 503.631 411.912 503.638 411.613C501.739 410.396 499.971 409.479 498.335 408.862C496.711 407.647 495.621 407.187 495.064 407.48C494.789 407.477 494.38 407.323 493.836 407.017C491.133 404.893 489.372 403.677 488.554 403.369C488.01 403.064 487.336 402.458 486.531 401.551C485.72 400.944 484.908 400.337 484.096 399.729C483.291 398.823 482.208 398.063 480.846 397.45C478.968 395.334 477.757 394.124 477.214 393.819C476.67 393.514 475.986 393.357 475.161 393.348C472.739 390.928 471.26 389.415 470.724 388.811C470.194 387.908 469.382 387.3 468.289 386.989C467.759 386.086 467.088 385.33 466.276 384.723C465.747 383.819 465.213 383.066 464.677 382.461C462.812 379.748 461.625 377.491 461.115 375.69C460.606 373.889 459.67 372.682 458.308 372.069C457.282 368.767 456.773 366.966 456.78 366.667C456.793 366.068 456.387 365.765 455.562 365.756C455.609 363.662 455.227 362.311 454.416 361.704C453.604 361.097 452.937 360.192 452.413 358.989C452.991 357.799 452.873 356.9 452.062 356.293C451.532 355.389 451.549 354.641 452.112 354.049C451.046 352.541 450.251 351.186 449.728 349.984C449.48 348.784 449.095 347.583 448.571 346.381C448.323 345.181 448.069 344.281 447.807 343.68C447.552 342.779 447.435 341.88 447.455 340.983C446.698 337.983 445.91 336.328 445.091 336.02C444.28 335.413 444.427 334.966 445.534 334.679C443.69 331.068 442.792 328.216 442.839 326.122C443.161 324.031 443.339 322.238 443.373 320.743C443.152 318.347 443.049 316.85 443.062 316.251C443.357 315.357 443.515 314.461 443.536 313.564C442.771 310.863 442.53 309.364 442.812 309.068C443.1 308.473 443.114 307.874 442.852 307.273C442.397 303.08 442.753 299.493 443.921 296.514C442.868 294.408 442.506 292.16 442.835 289.77C443.165 287.38 443.625 285.291 444.215 283.503C444.504 282.907 444.662 282.012 444.689 280.815C444.723 279.32 444.753 277.973 444.78 276.777C444.573 273.783 444.892 271.842 445.737 270.953C445.845 266.168 445.933 262.279 446.001 259.288C446.344 256.3 447.226 253.766 448.649 251.688C449.28 248.104 450.173 245.122 451.327 242.741C452.489 240.062 453.381 237.08 454.006 233.795C455.147 232.013 455.999 230.825 456.563 230.233C457.408 229.345 457.975 228.603 458.264 228.008C458.566 226.815 458.861 225.92 459.15 225.325C459.714 224.733 460.281 223.991 460.851 223.1C463.944 220.142 465.914 218.219 466.759 217.331C467.88 216.446 469.001 215.56 470.121 214.675C470.685 214.083 471.248 213.491 471.812 212.899C472.376 212.307 472.943 211.565 473.513 210.674C474.077 210.081 474.641 209.489 475.204 208.897C476.05 208.009 476.754 207.269 477.318 206.676C479.841 204.61 481.381 203.43 481.938 203.137C482.777 202.548 483.478 201.957 484.041 201.365C484.88 200.776 485.581 200.185 486.145 199.593C486.709 199.001 487.269 198.558 487.826 198.265C489.221 197.383 490.748 196.802 492.405 196.521C494.062 196.24 495.595 195.359 497.005 193.879C498.098 194.19 498.923 194.199 499.48 193.906C500.037 193.613 500.728 193.471 501.553 193.48C504.351 191.417 506.032 190.089 506.596 189.497C507.166 188.605 507.733 187.864 508.297 187.272C511.055 187.003 513.255 187.027 514.899 187.344C516.824 187.366 518.756 187.088 520.696 186.511C522.078 186.227 523.188 185.79 524.027 185.201C525.147 184.316 526.389 184.18 527.75 184.793C530.528 183.627 533.155 183.058 535.63 183.085C538.381 183.116 540.991 183.294 543.46 183.62C544.285 183.629 545.107 183.788 545.925 184.096C547.026 184.108 548.26 184.272 549.629 184.586C551.547 184.906 553.322 185.524 554.952 186.44C556.589 187.056 558.501 187.676 560.688 188.298C563.928 191.027 566.913 192.855 569.643 193.782C572.38 194.411 574.269 196.077 575.308 198.782C578.823 201.513 581.251 203.634 582.593 205.145C583.941 206.357 584.867 208.012 585.37 210.112C587.523 212.23 588.978 214.789 589.736 217.79C590.493 220.79 591.67 223.496 593.267 225.907C594.568 229.212 595.332 231.913 595.56 234.01C596.063 236.11 596.015 238.204 595.418 240.292C596.135 245.087 597.013 248.836 598.052 251.54C599.099 253.945 599.866 256.497 600.356 259.195C601.1 262.794 601.458 265.191 601.431 266.388C601.679 267.587 601.924 268.936 602.165 270.435C602.118 272.529 602.228 273.727 602.496 274.029C603.04 274.334 603.305 274.786 603.291 275.384C603.526 277.182 603.633 278.529 603.612 279.426C603.874 280.028 603.995 280.777 603.974 281.674C603.941 283.17 603.776 284.365 603.481 285.259C603.185 286.154 603.024 287.199 602.997 288.395C604.291 292 604.797 293.95 604.516 294.246C604.234 294.542 604.224 294.991 604.485 295.592C604.431 297.985 604.253 299.779 603.951 300.972C603.649 302.165 603.212 303.208 602.642 304.099C602.078 304.691 601.246 304.981 600.146 304.969C599.046 304.957 598.616 305.7 598.857 307.199ZM561.845 246.653C562.979 245.17 563.157 243.377 562.379 241.274C561.883 238.875 561.377 236.924 560.86 235.423C561.424 234.831 561.438 234.232 560.901 233.628C560.371 232.725 560.257 231.676 560.559 230.483C558.97 227.772 558.044 226.117 557.783 225.515C557.796 224.917 557.538 224.166 557.008 223.263C555.962 220.858 555.442 219.506 555.449 219.207C555.738 218.611 555.748 218.163 555.48 217.861C554.42 216.054 553.759 214.85 553.498 214.249C553.511 213.65 553.246 213.199 552.703 212.893C552.743 211.099 552.22 209.896 551.134 209.286C550.329 208.379 550.087 206.881 550.41 204.79C549.33 203.88 548.247 203.121 547.16 202.51C546.08 201.601 545.423 200.247 545.188 198.449C543.84 197.238 542.065 196.62 539.865 196.595C537.671 196.272 535.756 195.802 534.119 195.186C533.294 195.177 532.049 195.462 530.385 196.042C529.003 196.326 528.033 196.615 527.476 196.908C525.826 196.889 524.306 197.172 522.918 197.755C521.81 198.042 520.7 198.478 519.586 199.065C518.748 199.654 517.775 200.092 516.668 200.379C515.561 200.666 514.725 201.105 514.162 201.697C512.752 203.178 511.085 203.907 509.16 203.886C508.576 205.376 507.857 206.714 507.005 207.901C506.435 208.793 505.854 210.133 505.264 211.921C503.002 214.589 501.579 216.668 500.995 218.157C500.411 219.647 499.828 221.136 499.244 222.626C498.344 225.907 497.307 229.187 496.132 232.465C495.239 235.447 494.883 239.033 495.064 243.224C494.211 244.411 493.772 245.603 493.745 246.8C493.993 247.999 493.825 249.344 493.241 250.833C492.925 252.625 492.475 254.265 491.891 255.755C491.589 256.948 491.83 258.447 492.615 260.251C490.615 263.52 490.524 267.558 492.341 272.365C491.496 273.253 491.066 273.996 491.053 274.595C491.039 275.193 491.015 276.24 490.982 277.735C490.632 281.023 490.296 283.712 489.974 285.802C489.651 287.893 489.738 290.138 490.234 292.537C492.166 292.259 493.951 292.429 495.588 293.045C498.614 293.078 500.955 292.955 502.612 292.674C504.551 292.097 506.346 291.817 507.996 291.835C512.377 292.781 515.534 293.115 517.466 292.837C519.405 292.26 521.052 292.428 522.407 293.341C523.528 292.456 525.054 291.874 526.986 291.596C529.194 291.321 531.398 291.196 533.598 291.22C535.799 291.245 537.858 291.417 539.777 291.737C541.978 291.761 543.769 291.632 545.151 291.348C547.634 291.076 549.146 291.093 549.69 291.398C550.508 291.706 551.193 291.863 551.743 291.869C554.225 291.597 555.735 291.764 556.271 292.368C556.815 292.673 557.365 292.679 557.922 292.386C558.499 291.196 559.22 289.708 560.086 287.922C561.227 286.14 561.123 284.642 559.775 283.431C560.179 277.751 560.562 272.968 560.925 269.082C561.563 265.2 561.792 261.163 561.611 256.973C562.766 254.592 563.088 252.501 562.578 250.7C562.344 248.903 562.099 247.554 561.845 246.653Z" fill="white"/>
<path d="M707.518 102.431L734.134 103.3L732.468 128.17L750.811 128.769L752.477 103.9L822.971 106.204L821.305 131.073L843.245 131.79L841.606 156.259L863.905 156.987L851.948 335.487L826.051 334.641L837.714 160.553L815.414 159.825L817.08 134.955L754.139 132.898L752.473 157.768L730.533 157.051L718.871 331.138L692.255 330.269L707.518 102.431Z" fill="white"/>
<path d="M1091.39 0.679681C1092.1 1.5665 1092.51 2.61838 1092.61 3.83533C1093 4.73509 1093.56 5.7805 1094.3 6.97156C1093.24 9.45724 1092.41 10.8651 1091.8 11.1953C1091.2 11.5254 1091.1 12.2925 1091.52 13.4965C1090.39 15.0694 1089.55 16.4773 1089.03 17.7202C1088.79 18.6458 1089.01 19.4 1089.69 19.9825C1088.51 20.947 1088 22.4941 1088.18 24.6238C1088.33 26.4492 1087.99 27.9898 1087.14 29.2456C1087.48 33.2007 1087.71 35.9388 1087.83 37.46C1088.28 38.9682 1088.41 40.4894 1088.22 42.0235L1086.78 47.5775C1086.86 48.4902 1087.1 49.3964 1087.49 50.2962C1087.88 51.196 1087.98 52.4129 1087.8 53.947C1087.68 56.3939 1087.83 58.0672 1088.22 58.967C1088.58 59.5625 1088.96 60.3101 1089.36 61.2099C1089.45 66.0906 1089.43 69.6023 1089.29 71.7449C1089.45 73.5703 1088.98 75.5738 1087.9 77.7552C1088.28 82.3188 1088.89 85.8045 1089.73 88.2125C1090.85 90.3034 1090.7 92.2938 1089.28 94.184C1090.33 95.3621 1090.75 96.5661 1090.53 97.796C1090.63 99.0129 1090.72 100.078 1090.8 100.99L1092.32 107.797C1092.89 110.826 1093.04 112.5 1092.75 112.817C1092.46 113.134 1092.18 113.603 1091.91 114.225C1091.83 116.976 1092.06 119.714 1092.6 122.439C1093.44 124.847 1093.96 127.268 1094.17 129.702C1095.1 133.327 1095.61 135.596 1095.69 136.509C1095.74 137.117 1096.43 137.852 1097.77 138.713C1096.64 140.286 1096.49 142.276 1097.33 144.684C1098.45 146.775 1099.27 149.031 1099.79 151.452C1099.71 154.203 1099.84 155.724 1100.18 156.015C1100.52 156.307 1100.72 156.756 1100.77 157.365C1101.36 160.699 1101.36 162.53 1100.75 162.861C1100.46 163.178 1100.33 163.489 1100.36 163.793C1100.46 165.01 1100.73 166.372 1101.18 167.881C1101.59 169.085 1101.54 170.308 1101.01 171.551C1101.66 175.493 1102.07 178.529 1102.25 180.658C1102.4 182.484 1102.25 184.474 1101.8 186.63C1102.48 187.213 1102.71 187.967 1102.47 188.892C1102.54 189.805 1102.78 190.711 1103.17 191.611C1103.74 194.64 1103.91 196.618 1103.67 197.544C1103.43 198.469 1103.35 199.388 1103.43 200.301C1104.39 204.23 1104.77 206.81 1104.55 208.04C1104.31 208.965 1104.22 209.733 1104.27 210.341C1105.21 213.966 1105.53 215.937 1105.24 216.254C1104.93 216.267 1104.8 216.578 1104.85 217.186C1105.32 218.999 1105.96 220.957 1106.77 223.061C1107.55 224.86 1108.03 226.825 1108.21 228.954C1107.91 232.935 1107.83 235.687 1107.95 237.208C1108.37 238.412 1108.65 239.774 1108.77 241.295C1108.9 242.817 1108.9 244.649 1108.76 246.791C1108.94 248.921 1109.46 251.342 1110.32 254.054C1109.92 256.818 1109.92 258.65 1110.31 259.55C1110.7 260.449 1110.92 261.204 1110.97 261.812C1111.26 265.159 1111.04 268.22 1110.32 270.997C1110.68 275.257 1111.28 278.59 1112.11 280.998C1113.26 283.393 1113.13 285.536 1111.7 287.426C1113.25 290.721 1113.72 292.534 1113.11 292.864C1112.48 292.89 1112.19 293.207 1112.24 293.815C1113.1 296.527 1113.39 298.042 1113.1 298.359C1112.78 298.372 1112.65 298.683 1112.7 299.291C1112.59 301.738 1112.56 303.266 1112.61 303.874C1112.98 304.47 1113.19 305.072 1113.24 305.68C1114.18 309.305 1114.54 311.733 1114.32 312.963C1114.4 313.875 1114.81 314.927 1115.54 316.118C1116.5 320.048 1116.96 323.54 1116.9 326.595C1117.15 329.637 1117.68 332.211 1118.5 334.314C1121.99 334.476 1124.97 334.049 1127.41 333.033C1129.34 329.595 1130.92 327.699 1132.16 327.343C1133.4 326.987 1134.52 327.094 1135.51 327.663C1137.95 330.311 1139.54 332.23 1140.27 333.421C1140.98 334.308 1141.39 335.36 1141.49 336.577C1141.3 338.111 1140.62 339.36 1139.43 340.325C1138.56 341.276 1137.53 342.234 1136.35 343.199C1134.72 342.655 1133.28 342.561 1132.05 342.917C1130.83 343.577 1129.57 343.629 1128.26 343.072C1126.71 343.441 1125.47 343.797 1124.55 344.141C1123.65 344.788 1122.39 344.84 1120.76 344.296C1117.73 345.947 1115.77 347.095 1114.87 347.743C1114 348.694 1113.09 349.19 1112.15 349.228C1105.39 347.979 1100.62 347.717 1097.83 348.442C1095.06 349.471 1091.46 349.924 1087.02 349.801C1085.49 350.474 1084.26 350.983 1083.34 351.326C1082.76 351.96 1081.83 352.151 1080.54 351.899L1073.96 347.131C1073.52 345.623 1073.4 344.254 1073.62 343.024C1073.86 342.098 1073.44 340.894 1072.36 339.412C1073.45 337.23 1073.81 335.842 1073.44 335.246C1073.36 334.334 1073.6 333.408 1074.16 332.47C1073.27 329.453 1072.96 327.634 1073.22 327.013C1073.49 326.391 1073.59 325.776 1073.54 325.168C1073.46 324.255 1073.22 323.197 1072.8 321.993C1072.38 320.789 1072.62 319.863 1073.52 319.216C1072.13 317.746 1071.64 315.782 1072.07 313.322C1072.79 310.545 1072.44 308.27 1071.02 306.496C1070.79 303.758 1070.8 301.926 1071.03 301C1071.27 300.075 1071.18 299.01 1070.77 297.806C1069.96 295.702 1069.7 294.492 1069.99 294.174C1070.25 293.553 1070.36 292.938 1070.31 292.33L1068.91 281.397C1068.04 282.348 1067.51 283.591 1067.32 285.125C1067.45 286.646 1066.74 287.591 1065.19 287.96C1066.15 291.889 1065.11 294.527 1062.05 295.874C1062.21 297.699 1061.68 298.942 1060.46 299.602C1059.57 300.25 1059.36 301.479 1059.82 303.292C1058.06 304.891 1057.25 306.603 1057.41 308.428C1056.01 310.623 1054.92 312.804 1054.16 314.973C1051.49 317.219 1050.24 319.255 1050.39 321.08C1048.07 323.618 1046.79 325.349 1046.55 326.275C1046.29 326.896 1045.87 327.524 1045.29 328.158C1043.76 328.832 1042.38 329.346 1041.14 329.702C1040.19 329.741 1039.27 330.084 1038.38 330.731C1037.08 334.143 1036.15 336.318 1035.6 337.256C1035.34 337.878 1034.91 338.506 1034.33 339.14C1031.88 340.156 1030.5 340.671 1030.19 340.684C1029.87 340.697 1029.11 341.033 1027.9 341.694C1026.42 342.975 1025.35 343.477 1024.7 343.199C1024.04 342.92 1023.42 343.098 1022.84 343.733C1018.99 346.943 1015.33 348.62 1011.86 348.762C1008.73 349.196 1006.01 348.85 1003.7 347.723C1002.49 348.384 1001.22 348.436 999.91 347.879C998.938 347.613 997.846 347.811 996.634 348.471C992.693 346.801 990.262 346.138 989.34 346.481C988.735 346.811 987.933 346.691 986.935 346.121C983.599 344.121 981.773 343.128 981.458 343.141C981.117 342.849 980.447 342.419 979.449 341.849C977.768 340.697 976.6 339.982 975.943 339.703C975.286 339.425 974.458 339.001 973.46 338.431C970.389 335.81 968.342 334.062 967.318 333.188C966.61 332.301 965.612 331.732 964.324 331.479C962.857 329.097 961.807 327.919 961.176 327.945C960.861 327.958 960.361 327.673 959.679 327.09C957.896 324.721 956.847 323.543 956.531 323.556C956.19 323.265 955.823 322.669 955.431 321.77C951.728 319.174 949.656 317.122 949.212 315.614C948.768 314.105 947.732 313.079 946.103 312.536C946.29 311.002 945.898 310.102 944.925 309.836C944.243 309.254 943.561 308.671 942.878 308.089C942.068 305.985 941.586 304.02 941.432 302.195C941.279 300.369 940.059 299.046 937.773 298.224C937.645 296.702 937.227 295.498 936.519 294.612C936.126 293.712 935.576 292.818 934.868 291.932C934.322 289.206 933.55 287.559 932.552 286.989C931.844 286.103 931.426 284.899 931.298 283.377C931.435 281.235 931.149 279.72 930.441 278.833C930.049 277.934 929.827 277.179 929.776 276.571C929.332 275.063 929.204 273.542 929.392 272.007C929.554 270.169 929.414 268.496 928.97 266.987C928.527 265.479 927.938 264.13 927.204 262.939C926.761 261.43 926.45 259.611 926.271 257.482C925.827 255.973 925.567 254.763 925.49 253.85C925.413 252.938 925.337 252.025 925.26 251.112C925.345 248.361 925.192 246.536 924.799 245.636C924.697 244.419 924.753 243.196 924.966 241.966C924.915 241.357 925.009 240.59 925.248 239.664C925.461 238.435 925.542 237.515 925.491 236.907C925.44 236.298 925.389 235.69 925.337 235.081C925.261 234.169 925.013 233.11 924.595 231.906C924.237 227.647 924.271 224.288 924.698 221.828C924.886 220.294 924.929 218.918 924.826 217.701C925.04 216.471 925.436 215.539 926.016 214.905C925.283 213.714 925.193 212.649 925.748 211.71C926.277 210.467 926.648 209.231 926.861 208.001C926.29 204.972 926.136 203.146 926.401 202.525C926.64 201.599 926.734 200.832 926.682 200.224C926.87 198.69 926.755 197.32 926.337 196.116C926.235 194.9 926.461 193.822 927.015 192.883C928.073 190.397 928.747 188.996 929.037 188.679C929.328 188.362 929.605 187.892 929.869 187.271C930.108 186.345 930.031 185.433 929.639 184.533C929.537 183.316 929.605 182.245 929.844 181.319C930.586 178.846 931.499 176.519 932.583 174.338C933.956 171.839 934.699 169.366 934.81 166.919C936.311 165.942 937.262 164.071 937.663 161.307C940.564 158.135 942.134 156.087 942.373 155.161C942.612 154.235 943.35 153.594 944.587 153.238L947.044 148.558C950.652 146.273 952.734 144.662 953.289 143.723C953.843 142.784 954.897 142.131 956.449 141.762C957.268 140.202 958.271 138.939 959.457 137.975C960.933 136.693 962.396 135.259 963.846 133.673C966.508 131.427 968.615 130.12 970.168 129.751C971.72 129.382 973.26 128.861 974.787 128.187C976.314 127.514 977.696 127 978.933 126.644C980.46 125.97 981.488 125.012 982.017 123.77C983.28 123.718 984.713 123.812 986.317 124.051C988.236 124.278 990.143 124.352 992.037 124.274C996.772 124.08 999.954 124.255 1001.58 124.799C1003.21 125.342 1005.26 125.258 1007.74 124.546C1011.07 126.546 1014 127.495 1016.53 127.391C1017.21 127.974 1017.91 128.708 1018.61 129.595C1019.3 130.178 1020.41 130.285 1021.97 129.916C1027.61 133.042 1031.16 135.644 1032.6 137.722C1034.04 139.8 1036.08 141.396 1038.7 142.509C1039.41 143.396 1040.12 144.283 1040.83 145.17C1041.51 145.752 1042.22 146.639 1042.95 147.83C1044.79 150.808 1047.16 152.695 1050.08 153.491C1051.31 156.799 1051.95 158.757 1052 159.365C1052.34 159.656 1052.84 159.941 1053.5 160.22C1054.99 162.906 1055.8 165.01 1055.93 166.531C1056.06 168.052 1056.93 169.085 1058.56 169.628C1059.25 166.547 1059.4 164.557 1059.01 163.657C1058.91 162.44 1059.17 161.818 1059.81 161.793C1058.44 160.627 1057.81 158.821 1057.92 156.375C1058.01 153.623 1058.3 151.474 1058.81 149.927C1058.21 146.594 1057.73 144.629 1057.36 144.034C1057 143.438 1056.79 142.836 1056.73 142.228C1056.85 139.781 1056.48 137.353 1055.65 134.945C1055.2 133.437 1054.92 131.922 1054.79 130.401C1054.95 128.563 1054.65 126.896 1053.89 125.401C1054.37 123.549 1054.5 121.255 1054.27 118.517C1054.04 115.778 1053.98 113.186 1054.09 110.739C1053.52 107.71 1053.23 106.195 1053.23 106.195C1053.55 106.182 1053.69 106.023 1053.67 105.719C1052.83 103.311 1052.39 101.803 1052.33 101.194C1052.6 100.573 1052.85 99.7995 1053.09 98.8738C1052.96 97.3526 1052.69 95.99 1052.27 94.786C1051.85 93.582 1051.59 92.3716 1051.49 91.1546C1051 89.0379 1050.99 87.0539 1051.47 85.2026C1052.23 83.0341 1051.78 81.3737 1050.1 80.2215C1050.99 79.5742 1051.24 78.8006 1050.85 77.9009C1050.46 77.0011 1050.22 76.0949 1050.15 75.1822C1050.21 72.1269 1050.03 69.9972 1049.61 68.7932C1049.48 67.272 1049.35 65.7508 1049.23 64.2296C1050.26 61.4397 1050.67 58.8278 1050.47 56.3939C1050.16 52.7431 1050 50.7655 1049.97 50.4613C1050.23 49.8399 1050.5 49.2185 1050.76 48.597C1050.22 45.8718 1050.08 44.1985 1050.34 43.5771C1050.92 42.9428 1051.34 42.3149 1051.61 41.6934C1050.82 39.8939 1050.67 38.0685 1051.15 36.2172C1051.63 34.3659 1051.79 32.5275 1051.63 30.7021C1051.87 29.7764 1051.81 29.0158 1051.44 28.4203C1051.37 27.5076 1051.29 26.5949 1051.21 25.6822C1051.11 24.4652 1051.02 23.4004 1050.94 22.4877C1051.16 21.2578 1050.92 20.3515 1050.24 19.769C1048.93 19.2123 1047.66 19.2641 1046.45 19.9243C1045.56 20.5716 1044.49 21.0733 1043.25 21.4293C1041.7 21.7983 1040.13 22.0151 1038.56 22.0799C1037.27 21.8274 1035.85 21.8857 1034.3 22.2547C1032.14 22.9538 1030.9 23.3098 1030.58 23.3227C1030.24 23.0314 1029.76 22.8987 1029.13 22.9246C1025.05 23.3972 1021.59 23.6917 1018.75 23.8082C1016.22 23.9118 1013.88 24.3131 1011.72 25.0122C1011.04 24.4297 1010.05 24.0121 1008.77 23.7597C1007.48 23.5072 1006.47 22.7855 1005.73 21.5944C1003.5 21.3808 1002.2 20.9762 1001.83 20.3807C1001.46 19.7852 1001.1 19.1897 1000.73 18.5941C999.528 15.5906 999.532 13.7587 1000.74 13.0985C1001.93 12.134 1003.15 11.6258 1004.42 11.574C1005.68 11.5222 1006.81 11.7812 1007.81 12.3508C1009.1 12.6033 1010.54 12.8492 1012.14 13.0887C1014.99 12.9722 1016.55 12.7554 1016.84 12.4382C1017.45 12.1081 1018.07 11.93 1018.7 11.9041C1021.25 12.1048 1023.61 12.0077 1025.8 11.6128C1028.3 11.205 1030.5 10.9623 1032.39 10.8846L1038.54 10.6322C1042.57 9.55114 1045.04 8.8391 1045.97 8.49602C1046.89 8.15294 1047.81 7.80987 1048.73 7.46679C1051.2 6.75475 1052.74 6.23366 1053.35 5.90353C1054.27 5.56045 1055.38 5.51514 1056.66 5.76759C1061.3 4.35644 1064.4 3.6185 1065.98 3.55377C1067.53 3.1848 1068.6 2.68313 1069.18 2.04877C1072.6 1.29788 1075.74 1.0163 1078.61 1.20402C1081.45 1.0875 1083.79 0.686161 1085.64 7.46086e-06C1086.29 0.278351 1086.95 0.556695 1087.61 0.835039C1088.58 1.10044 1089.84 1.04865 1091.39 0.679681ZM1051.86 185.931C1050.81 184.753 1050.42 183.853 1050.68 183.232C1051.26 182.597 1051.35 181.83 1050.96 180.93C1050.2 179.435 1049.63 178.238 1049.23 177.338C1048.82 176.134 1048.39 174.778 1047.94 173.269C1045.9 171.522 1044.97 169.881 1045.15 168.347C1043.05 165.99 1041.83 164.667 1041.49 164.375C1041.44 163.767 1041.23 163.165 1040.87 162.569C1040.11 161.074 1039.22 159.89 1038.19 159.016C1037.46 157.825 1036.55 156.488 1035.48 155.006C1032.38 152.08 1030.34 150.332 1029.34 149.762C1028.31 148.888 1027.46 148.16 1026.78 147.578C1024.81 146.743 1023.18 146.199 1021.89 145.946C1020.89 145.377 1019.89 144.807 1018.9 144.238C1014.27 141.985 1011.04 141.202 1009.2 141.888C1008.49 141.001 1007.5 140.583 1006.24 140.635C1005.29 140.674 1004.33 140.561 1003.36 140.295C999.94 141.046 997.901 141.283 997.244 141.004C996.903 140.713 996.43 140.732 995.824 141.062C993.06 142.092 991.072 142.936 989.861 143.597C988.624 143.953 987.242 144.467 985.715 145.141C985.211 146.688 984.379 148.096 983.219 149.364C982.033 150.329 980.848 151.293 979.662 152.258C977.469 156.316 975.95 158.974 975.106 160.229C974.551 161.168 973.864 162.417 973.045 163.977C971.459 167.706 970.716 170.179 970.819 171.396C970.921 172.612 970.865 173.836 970.652 175.066C969.441 175.726 968.583 176.83 968.08 178.377C967.551 179.62 966.996 180.558 966.416 181.193C967.517 182.979 967.866 185.255 967.465 188.019C967.064 190.783 966.296 192.951 965.162 194.524C966.074 197.845 966.147 200.589 965.379 202.758C964.926 204.913 964.487 207.221 964.06 209.681C964.657 213.015 964.653 214.846 964.047 215.177C963.757 215.494 963.663 216.261 963.766 217.478C964.525 218.973 964.981 220.633 965.135 222.459C965.578 223.967 965.877 225.634 966.03 227.459L967.003 233.373C967.096 238.253 967.032 243.14 966.81 248.034C966.562 252.624 967.565 257.009 969.817 261.191C969.68 263.333 969.979 265 970.712 266.191C971.42 267.078 971.838 268.282 971.966 269.803C970.882 271.985 970.746 274.127 971.556 276.231C972.657 278.018 973.586 279.659 974.346 281.154C975.523 283.853 976.018 285.97 975.83 287.504C975.932 288.721 976.047 290.09 976.175 291.611C976.567 292.511 976.96 293.411 977.352 294.31C977.719 294.906 977.941 295.66 978.018 296.573C978.854 298.981 979.323 300.793 979.425 302.01C981.208 304.379 982.27 305.71 982.611 306.001C982.952 306.292 983.306 306.736 983.673 307.331C984.245 310.361 984.714 312.173 985.081 312.769C985.422 313.06 985.618 313.51 985.669 314.118C987.793 316.779 988.54 318.122 987.908 318.148C987.593 318.161 987.618 318.465 987.985 319.06C990.16 322.329 990.958 324.281 990.378 324.915C990.088 325.233 990.126 325.689 990.493 326.284L997.185 332.421C998.942 334.486 999.979 335.512 1000.29 335.499C1000.93 335.473 1001.57 335.599 1002.23 335.878C1005.46 336.661 1007.52 336.729 1008.42 336.082C1009.63 335.421 1011.01 334.907 1012.57 334.538C1016.09 335.004 1018.44 334.755 1019.63 333.79C1020.79 332.521 1022.13 331.55 1023.66 330.877C1024.19 329.634 1024.92 328.841 1025.84 328.498C1027.07 328.142 1027.98 327.647 1028.56 327.013C1031.2 324.462 1032.66 323.028 1032.95 322.711C1033.24 322.394 1033.35 321.779 1033.27 320.866C1035.33 318.95 1036.5 317.834 1036.79 317.517C1037.37 316.882 1037.79 316.254 1038.06 315.633C1040.3 312.183 1041.56 310.147 1041.82 309.526C1042.08 308.904 1042.51 308.276 1043.09 307.642C1043.91 306.082 1045.07 304.813 1046.57 303.836C1046.15 302.632 1046.39 301.706 1047.28 301.059C1048.15 300.107 1048.88 299.314 1049.46 298.68C1051.34 294.634 1052.53 291.838 1053.03 290.291C1053.82 288.426 1054.63 286.714 1055.45 285.154C1056.4 281.452 1056.84 279.144 1056.77 278.231C1056.69 277.318 1057.11 276.691 1058.03 276.347C1057.8 273.609 1058.27 271.606 1059.43 270.337C1060.59 269.068 1061.07 267.217 1060.86 264.783C1060.85 260.815 1061.08 257.906 1061.55 256.054C1062.35 254.19 1063.14 252.326 1063.93 250.461C1064.86 246.455 1065.28 243.843 1065.18 242.626C1065.44 242.004 1065.36 241.092 1064.95 239.888C1064.5 238.379 1064.41 237.315 1064.68 236.693C1063.74 233.068 1063.22 230.647 1063.12 229.43C1063.01 228.213 1062.94 227.301 1062.89 226.692C1062.61 223.346 1062.57 221.057 1062.78 219.827C1062.97 218.293 1063.03 217.07 1062.95 216.157C1062.67 212.811 1062.36 210.992 1062.02 210.7C1061.68 210.409 1061.48 209.959 1061.43 209.351L1061.44 203.855C1061.66 198.961 1061.24 193.941 1060.18 188.795C1058.55 188.251 1056.93 187.86 1055.33 187.62C1054.04 187.368 1052.88 186.805 1051.86 185.931Z" fill="white"/>
<path d="M1253.73 155.818C1256.67 164.787 1258.14 175.835 1258.14 188.962C1258.14 215.87 1252.81 254.155 1242.15 303.816C1271.19 258.312 1298.22 222.762 1323.22 197.165C1348.4 171.35 1368.53 158.443 1383.61 158.443C1394.27 158.443 1399.6 169.053 1399.6 190.274C1399.6 244.092 1373.13 304.582 1320.19 371.745C1296.1 402.373 1273.49 424.906 1252.35 439.345C1231.21 453.784 1206.85 463.519 1179.28 468.551C1155.57 472.926 1138.47 479.49 1127.99 488.24C1117.51 496.991 1112.27 509.133 1112.27 524.666C1112.27 536.479 1117.33 545.996 1127.44 553.215C1137.37 560.654 1150.33 564.373 1166.32 564.373C1185.99 564.373 1204 558.575 1220.37 546.98C1216.14 574.327 1198.21 588 1166.59 588C1147.66 588 1132.22 582.64 1120.27 571.92C1108.32 561.2 1102.35 547.309 1102.35 530.244C1102.35 508.805 1111.26 486.271 1129.09 462.644C1137.73 451.487 1147.02 443.83 1156.94 439.673C1166.69 435.517 1185.07 431.797 1212.09 428.516C1236.54 425.453 1256.12 418.343 1270.83 407.186C1294.54 389.246 1314.76 365.729 1331.49 336.632C1341.23 319.787 1349.41 300.972 1356.03 280.189C1362.65 259.187 1365.96 241.576 1365.96 227.356C1365.96 209.417 1360.9 200.447 1350.79 200.447C1333.7 200.447 1309.98 222.215 1279.65 265.75C1249.32 309.286 1223.21 359.165 1201.34 415.39L1198.86 421.625H1189.21L1191.96 409.155C1212.92 321.427 1223.4 258.093 1223.4 219.152C1223.4 205.369 1219.63 198.478 1212.09 198.478C1208.97 198.478 1204.74 199.681 1199.41 202.088C1198.49 202.525 1197.2 203.072 1195.55 203.729L1193.07 193.884C1195.27 192.571 1196.65 191.696 1197.2 191.259L1223.12 176.163L1249.59 158.771C1250.15 158.334 1251.52 157.349 1253.73 155.818Z" fill="white"/>
</svg>
